<svg width="32" height="32" viewBox="0 0 32 32" fill="none" xmlns="http://www.w3.org/2000/svg">
<path d="M11 27.9843C8.43333 28.1867 6.33333 26.3822 6.33333 25.4546V20.9013C6.33333 19.0799 4.77778 18.4559 4 18.3716V17.6127C5.86667 17.6127 6.33333 15.7576 6.33333 14.8301C6.33333 14.4085 6.33333 13.0087 6.33333 10.7826C6.33333 8.55652 9.93056 8 11 8V14.5614H21M21 7C22.0694 7 25.6667 7.55652 25.6667 9.78262V13.8301C25.6667 14.7576 26.1333 16.6127 28 16.6127V17.3716C27.2222 17.4559 25.6667 18.0799 25.6667 19.9013V24.4546C25.6667 25.3822 23.5667 27.1867 21 26.9843M11.5 18H17.9595C19.6163 18 20.9595 19.3431 20.9595 21V26.9474" stroke="#859094" stroke-linecap="round"/>
</svg>
