<svg width="893" height="540" viewBox="0 0 893 540" fill="none" xmlns="http://www.w3.org/2000/svg">
<path d="M982.245 855.505L978.151 851.909C957.023 832.789 947.451 808.927 938.167 785.87C929.137 763.336 920.565 742.053 902.149 724.396C886.811 714.395 870.541 713.066 853.309 711.64C846.688 711.071 839.746 710.512 832.834 709.396C800.39 704.124 774.713 694.013 746.075 680.297C709.495 658.65 674.819 633.12 641.272 608.392C621.643 593.968 601.644 579.21 581.124 565.127C585.037 587.133 586.89 609.456 586.659 631.808C576.796 683.582 583.993 737.146 590.992 788.911C592.278 798.32 593.534 807.736 594.656 816.859L595.025 819.654L592.446 818.483C538.358 794.246 495.03 783.682 447.569 783.195C443.152 783.302 438.664 783.522 434.199 783.705C399.341 785.221 366.404 786.638 340.518 757.83C310.278 725.973 295.689 682.285 281.695 640.011C279.263 632.751 276.884 625.576 274.48 618.569C272.978 614.554 271.462 610.477 269.969 606.362C256.158 568.836 241.882 530.028 212.538 501.682C195.828 489.449 176.258 479.932 157.372 470.836C150.048 467.292 142.411 463.661 135.135 459.911C106.539 444.91 79.207 427.623 53.4056 408.22L46.5909 403.131L54.7887 405.432C106.529 420.026 158.754 427.351 224.053 429.217C280.583 433.904 320.434 445.258 361.541 468.359C392.024 483.16 424.891 494.192 456.661 504.836C486.503 514.868 517.389 525.203 546.511 538.773C556.747 545.027 566.826 551.577 576.781 558.287C573.344 538.832 568.935 519.381 564.629 500.23C559.468 477.33 554.157 453.657 550.641 430.854C550.45 427.306 550.295 423.91 550.094 420.461C547.795 377.588 545.186 329.025 593.068 306.49C633.411 285.124 657.04 260.137 667.461 227.852C676.032 193.64 683.2 158.434 690.155 124.379C692.248 114.041 694.364 103.708 696.503 93.3807C708.189 59.1768 720.232 24.0143 769.372 28.4427L770.235 28.5297L770.615 29.3139C774.136 36.3805 777.617 43.0033 780.977 49.5253C793.457 73.3471 804.258 93.9078 808.554 120.962C811.248 143.992 825.577 171.099 838.211 194.885C842.611 203.2 846.78 211.085 850.158 217.959L911.321 348.272C923.079 373.56 934.237 399.605 945.032 424.797C953.858 445.372 963.024 466.837 972.459 487.656L973.151 489.209C999.236 546.396 1012.32 575.094 1006.16 639.623C1003.1 656.048 998.928 673.063 994.502 690.947C981.803 742.518 967.466 801.146 980.786 850.023L982.245 855.505ZM580.522 560.801C601.977 575.408 622.871 590.796 643.287 605.81C676.758 630.492 711.366 656.005 747.803 677.459C776.076 691.003 801.523 701.104 833.579 706.241C840.323 707.332 847.204 707.905 853.817 708.444C871.478 709.898 888.145 711.263 904.348 721.9C923.497 740.194 932.573 762.782 941.344 784.632C949.878 805.891 958.694 827.796 976.57 845.776C965.442 797.254 979.317 740.645 991.692 690.446C996.096 672.471 1000.28 655.486 1003.29 639.297C1009.36 575.761 996.37 547.301 970.538 490.637L969.839 489.054C960.366 468.211 951.221 446.837 942.366 426.14C931.61 400.971 920.52 374.942 908.716 349.73L847.268 219.452C844.006 212.518 839.844 204.665 835.321 196.378C822.539 172.239 808.091 144.901 805.296 121.312C801.108 94.8477 790.42 74.487 778.096 50.9194C774.847 44.7273 771.493 38.3659 768.099 31.5607C722.172 27.8288 710.614 61.6138 699.469 94.2652C697.377 104.473 695.255 114.689 693.102 124.911C686.14 158.936 678.963 194.242 670.398 228.614C659.681 261.843 635.663 287.375 594.357 309.196C548.346 330.867 550.758 376.271 553.113 420.2C553.306 423.619 553.499 427.037 553.654 430.432C557.143 452.983 562.44 476.595 567.586 499.433C572.359 519.737 576.984 540.237 580.522 560.801ZM62.1745 410.742C85.7673 428.013 110.632 443.482 136.557 457.016C143.925 460.744 151.286 464.441 158.611 467.985C177.641 477.144 197.326 486.601 214.467 499.283C244.446 528.256 258.871 567.417 272.792 605.273C274.316 609.381 275.794 613.434 277.31 617.511C279.752 624.541 282.139 631.747 284.54 639.014C298.476 681.043 312.809 724.338 342.697 755.663C367.747 783.406 399.972 781.996 434.064 780.531C438.552 780.311 443.047 780.121 447.526 780C494.765 780.507 537.844 790.838 591.166 814.448C590.134 806.112 588.988 797.706 587.849 789.331C580.853 737.306 573.598 683.497 583.533 631.479C583.759 608.378 581.784 585.31 577.636 562.585C566.953 555.4 556.085 548.259 545.113 541.499C516.295 528.117 485.508 517.791 455.743 507.805C423.866 497.122 390.923 486.043 360.181 471.109C319.385 448.226 279.954 436.999 223.921 432.357C161.834 430.636 111.507 423.931 62.1745 410.742Z" fill="white"/>
<path d="M904.853 723.076L901.695 723.435C898.152 689.695 896.671 675.767 881.594 642.07C867.174 609.642 857.837 574.715 848.814 540.977C847.333 535.403 845.851 529.828 844.346 524.292C842.377 516.793 840.4 509.264 838.462 501.758C828.968 465.347 819.139 427.656 807.618 391.174C795.798 358.357 783.362 325.135 770.644 291.268L733.621 192.799C720.327 157.87 708.526 126.506 697.581 96.9781L700.565 95.8834C711.541 125.403 723.304 156.745 736.597 191.673L773.628 290.174C786.346 324.041 798.76 357.171 810.655 390.164C822.212 426.799 832.041 464.49 841.549 500.963C843.477 508.471 845.436 515.972 847.426 523.466C848.931 529.002 850.412 534.577 851.894 540.151C860.895 573.797 870.195 608.57 884.504 640.798C899.936 674.897 901.329 689.007 904.853 723.076Z" fill="white"/>
<path d="M745.315 679.279C741.866 666.626 740.083 657.173 737.95 645.148C736.063 634.846 733.918 623.18 730.142 606.266C724.336 580.638 718.213 554.632 712.277 529.552L705.057 499.046C698.233 469.256 691.162 438.423 685.29 407.857L685.232 407.611C678.838 374.158 676.719 362.874 674.078 339.249C672.404 324.414 671.483 309.503 671.319 294.574C671.239 291.355 671.189 288.129 671.069 284.337L670.929 279.223C670.74 262.921 669.637 246.644 667.626 230.468L670.777 230.078C672.803 246.359 673.92 262.741 674.121 279.147L674.435 283.897C674.54 287.628 674.626 291.007 674.692 294.164C674.853 309.029 675.769 323.876 677.438 338.648C680.05 362.15 682.192 373.396 688.572 406.788L688.651 407.126C694.509 437.63 701.566 468.402 708.389 498.193L715.61 528.699C721.56 553.839 727.714 579.838 733.475 605.412C737.265 622.387 739.418 634.084 741.281 644.424C743.492 656.366 745.199 665.772 748.619 678.302L745.315 679.279Z" fill="white"/>
<path d="M547.506 539.962L544.392 540.505C542.922 531.69 541.668 524.475 540.485 517.697C538.463 506.002 536.726 495.923 534.452 481.244C531.308 462.843 529.167 444.284 528.039 425.649C526.568 409.801 526.99 393.832 529.297 378.081C531.702 360.838 534.094 353.407 540.734 341.864C547.374 330.32 552.848 326.046 563.804 319.859C571.841 315.378 580.204 311.505 588.82 308.272L592.467 306.826L593.653 309.783L590.007 311.229C581.51 314.39 573.274 318.212 565.375 322.66C554.728 328.644 550.069 331.981 543.484 343.479C536.898 354.978 534.829 361.716 532.315 378.5C530.042 394.055 529.638 409.824 531.11 425.472C532.207 444.004 534.334 462.459 537.481 480.754C539.741 495.371 541.478 505.45 543.5 517.145C544.782 523.932 546.05 531.208 547.506 539.962Z" fill="white"/>
<path d="M550.486 431.571C535.365 425.462 519.767 420.599 503.85 417.031C485.787 412.921 477.555 412.117 463.698 413.033C452.781 413.465 442.05 416.005 432.099 420.512C422.666 424.146 413.779 429.06 405.688 435.116C398.066 440.477 390.78 446.299 383.872 452.551L383.144 453.176L376.936 458.596C372.103 462.977 368.211 466.262 362.125 471.102L360.175 468.617C366.236 463.945 370.023 460.491 374.854 456.239L381.062 450.82L381.813 450.157C388.83 443.813 396.24 437.917 404 432.505C412.287 426.309 421.386 421.28 431.042 417.557C441.331 412.975 452.405 410.409 463.66 409.999C477.87 409.064 486.332 409.878 504.707 414.076C520.778 417.704 536.523 422.64 551.785 428.835L550.486 431.571Z" fill="white"/>
<path d="M582.713 632.127C561.67 621.178 545.423 615.698 522.966 608.095L505.319 602.041L502.286 601.01C470.505 590.045 453.142 583.956 425.956 570.349C398.771 556.742 387.11 548.85 367.949 530.786C357.675 521.146 348.187 510.703 339.576 499.556C336.02 495.217 332.389 490.702 327.851 485.365C312.713 467.579 302.275 456.225 279.241 447.14C262.45 440.383 244.92 435.622 227.013 432.952L223.821 432.348L224.42 429.26L227.604 429.833C245.708 432.535 263.428 437.361 280.396 444.211C303.644 453.376 314.78 465.213 330.258 483.339C334.78 488.744 338.465 493.214 342.028 497.583C350.585 508.592 359.98 518.925 370.13 528.489C389.064 546.283 400.315 553.948 427.424 567.509C454.534 581.069 471.814 587.08 503.411 598.089L506.42 599.158C512.813 601.368 518.658 603.319 524.06 605.181C546.616 612.793 562.854 618.372 584.217 629.439L582.713 632.127Z" fill="white"/>
<path d="M450.687 778.281L447.724 777.136C451.378 767.638 455.027 758.302 458.672 749.13C477.786 700.411 495.886 654.393 504.232 600.324C506.657 566.725 505.213 532.812 503.816 500.054C502.628 472.426 501.413 443.866 502.515 415.502C508.438 375.992 515.039 331.401 563.589 319.91L564.234 319.757C570.375 318.304 576.824 316.777 583.15 315.28C613.705 308.048 645.355 300.784 671.87 282.788C701.751 260.79 717.483 226.826 732.688 193.926L733.766 191.631C736.641 185.965 739.289 179.478 742.233 172.597C753.962 143.92 768.603 108.499 807.53 119.65L806.664 122.704C770.352 112.326 756.818 145.025 745.049 173.809C742.212 180.729 739.517 187.292 736.619 192.996L735.564 195.253C720.171 228.456 704.274 262.815 673.705 285.332C646.673 303.613 614.692 310.988 583.83 318.292C577.535 319.782 571.24 321.272 564.945 322.762L564.361 322.9C517.899 333.897 511.39 377.366 505.619 415.738C504.544 443.804 505.775 472.296 506.949 499.862C508.252 532.773 509.817 566.787 507.365 600.683C498.936 655.225 480.804 701.38 461.696 750.259C458.015 759.462 454.345 768.803 450.687 778.281Z" fill="white"/>
<path d="M345.741 753.453L343.022 751.831C377.174 694.017 404.725 632.565 425.16 568.628C433.08 539.751 439.565 510.015 445.861 481.264C450.866 458.29 456.072 434.523 461.983 411.27C470.246 373.7 500.879 346.796 541.92 341.259C568.97 337.577 596.824 337.978 623.732 338.084C640.828 338.247 658.499 338.371 675.746 337.526C712.585 334.872 746.875 317.732 771.091 289.868L847.733 217.853L849.892 220.126L773.277 291.843C761.037 305.939 746.134 317.488 729.422 325.827C712.71 334.166 694.516 339.132 675.884 340.44C658.514 341.313 640.806 341.166 623.656 341.049C596.87 340.913 569.13 340.582 542.274 344.122C502.589 349.5 472.979 375.384 464.977 411.727C459.073 435.011 453.891 458.739 448.886 481.714C442.72 510.467 436.082 540.238 428.136 569.283C407.629 633.543 379.992 695.317 345.741 753.453V753.453Z" fill="white"/>
<path d="M279.271 617.985L277.9 615.072C319.851 595.43 344.281 563.002 367.716 528.704C375.07 515.794 382.255 502.308 389.183 489.239C401.867 465.419 414.975 440.786 430.118 418.035C454.274 379.52 487.115 376.603 530.915 376.694C562.335 380.683 593.529 386.268 624.378 393.425C644.886 397.864 666.196 402.403 687.266 405.932C733.821 410.81 765.561 409.546 808.623 389.253C845.301 373.773 878.241 360.181 909.416 347.622L910.603 350.579C879.451 363.1 846.517 376.722 809.894 392.157C766.486 412.63 733.161 413.912 686.874 409.068C665.612 405.553 644.325 400.975 623.718 396.528C593.417 390.036 562.209 383.274 530.759 379.872C488.16 379.788 456.071 382.591 432.766 419.771C417.685 442.508 404.624 467.065 392.016 490.932C385.058 504.008 377.879 517.525 370.432 530.587C346.655 565.224 321.915 597.985 279.271 617.985Z" fill="white"/>
<path d="M867.873 520.796C860.718 522.489 853.496 524.037 846.261 525.393C792.846 535.51 751.843 522.713 707.61 506.406C685.941 497.063 664.477 486.667 643.651 476.638C606.7 458.899 568.532 440.542 529.151 427.199C487.164 416.545 447.295 406.62 405.368 434.998C399.518 439.329 393.676 444.24 387.437 449.117C369.369 463.754 350.643 478.903 329.33 485.857L328.992 485.937C319.749 486.895 310.394 487.652 301.392 488.39C272.354 490.795 244.963 493.037 217.007 501.11L216.282 498.044C244.537 489.867 272.181 487.598 301.288 485.21C310.229 484.486 319.484 483.72 328.665 482.777C349.365 475.968 367.789 461.052 385.617 446.634C391.844 441.566 397.722 436.808 403.711 432.379C446.834 403.167 487.237 413.29 530.05 424.007C569.676 437.292 607.987 455.842 645.014 473.628C665.802 483.633 687.32 493.984 708.783 503.28C754.081 520.111 793.01 532.234 845.681 522.26C879.347 515.976 912.486 505.413 944.534 495.173C953.218 492.405 961.895 489.606 970.601 486.931L971.542 489.946C962.836 492.621 954.182 495.382 945.505 498.18C920.212 506.271 894.405 514.516 867.873 520.796Z" fill="white"/>
<path d="M1003.97 641.048C968.809 624.73 931.74 632.662 895.875 640.341L883.519 642.942C827.154 658.678 777.266 633.965 731.025 607.255C710.243 593.848 689.536 579.938 669.49 566.487C626.491 537.585 582.059 507.695 535.333 482.363C484.852 460.898 439.323 447.747 382.039 453.438C350.96 459.142 320.16 453.967 290.199 449.047L279.431 447.257C244.318 447.7 209.158 451.78 174.925 455.803C163.282 457.167 151.57 458.514 139.767 459.753L139.441 456.593C151.212 455.361 162.917 453.983 174.568 452.65C208.77 448.634 243.999 444.57 279.534 443.995C283.407 444.6 287.019 445.202 290.601 445.811C320.202 450.719 350.82 455.808 381.376 450.227C439.443 444.416 485.36 457.702 536.488 479.434C583.473 504.9 627.974 534.806 671.018 563.762C691.033 577.22 711.709 591.138 732.531 604.438C780.01 631.858 827.259 655.286 882.635 639.751L895.175 637.107C931.531 629.312 969.252 621.258 1005.24 638.06L1003.97 641.048Z" fill="white"/>
</svg>
