<svg width="613" height="520" viewBox="0 0 613 520" fill="none" xmlns="http://www.w3.org/2000/svg">
<path d="M469.736 203.051L469.123 202.197C421.441 134.164 267.582 42.1512 126.022 -3.03901L125.342 -3.25244L125.644 -3.89032C171.507 -100.156 231.184 -162.563 281.369 -166.749C303.09 -168.57 322.016 -158.942 336.143 -138.961C401.961 -117.838 452.57 -72.8005 478.91 -11.9071C492.867 20.56 499.403 55.7328 498.043 91.0475C496.815 128.622 487.46 165.976 470.21 202.204L469.736 203.051ZM246.285 43.5368C345.876 90.7583 434.777 151.789 469.524 200.625C486.468 164.888 495.589 127.95 496.799 90.912C498.135 55.7731 491.628 20.7784 477.751 -11.5304C451.558 -72.045 401.076 -116.931 335.542 -137.811L335.364 -137.895L335.251 -138.076C321.144 -158.138 303.1 -167.366 281.482 -165.569C231.841 -161.38 172.71 -99.5133 127.059 -4.00072C167.8 9.21641 207.628 25.0965 246.285 43.5368V43.5368Z" fill="white"/>
<path d="M496.038 60.7527C454.897 2.14446 322.072 -77.3694 199.896 -116.385L200.268 -117.553C322.652 -78.4757 455.796 1.20768 497.044 60.0487L496.038 60.7527Z" fill="white"/>
<path d="M391.445 128.609L390.333 128.081C432.959 38.6023 440.564 -44.6433 410.669 -94.6304C394.722 -121.27 368.84 -136.268 335.712 -137.785L335.708 -139.041C369.242 -137.422 395.501 -122.3 411.669 -95.2828C441.873 -44.913 434.248 38.759 391.445 128.609Z" fill="white"/>
<path d="M268.244 54.8933L267.131 54.3658C327.142 -71.6225 352.262 -141.73 345.98 -145.762C345.37 -146.161 343.151 -146.232 336.214 -138.001L335.265 -138.796C340.991 -145.584 344.616 -148.135 346.656 -146.804C355.99 -140.78 314.008 -41.1651 268.244 54.8933Z" fill="white"/>
<path d="M-44.0828 38.9869L-44.6954 38.1331C-59.6134 16.8329 -62.9443 -0.626804 -54.3328 -12.3513C-46.2347 -23.338 -28.072 -28.844 -2.20382 -28.952C58.3593 -102.041 148.981 -147.559 239.684 -151.484C253.957 -160.396 267.998 -165.64 281.429 -166.721C303.208 -168.55 322.179 -158.864 336.302 -138.723L337.398 -137.203L335.646 -137.761C304.788 -147.489 272.458 -151.705 240.137 -150.215C201.133 -125.738 160.342 -73.581 126.876 -3.30657L126.644 -2.81705L126.169 -3.04211C74.7166 -19.4801 30.704 -27.7754 -1.42346 -27.8007C-18.1006 -7.66939 -32.2421 14.4341 -43.5304 38.0133L-44.0828 38.9869ZM-3.17102 -27.7935C-28.0749 -27.5735 -45.5285 -22.2219 -53.3407 -11.6083C-61.5099 -0.509963 -58.3723 16.1313 -44.2802 36.5676C-33.1885 13.5536 -19.3877 -8.05316 -3.17102 -27.7935V-27.7935ZM237.619 -150.155C148.286 -145.671 59.1935 -100.773 -0.624938 -28.9484C31.483 -28.8051 75.1129 -20.5459 125.817 -4.40801C158.889 -73.5065 199.024 -125.121 237.619 -150.155ZM309.82 -160.655C300.968 -164.784 291.168 -166.456 281.447 -165.495C268.824 -164.431 255.575 -159.593 242.086 -151.453C273.22 -152.699 304.34 -148.675 334.133 -139.551C327.907 -148.525 319.526 -155.792 309.76 -160.683L309.82 -160.655Z" fill="white"/>
<path d="M8.91357 -27.9142L7.80107 -28.4417C43.1039 -102.551 102.145 -154.958 169.755 -172.213C227.11 -186.808 286.198 -175.017 336.093 -138.894L335.379 -137.888C285.783 -173.796 227.099 -185.596 170.066 -171.03C102.821 -153.892 44.0617 -101.697 8.91357 -27.9142Z" fill="white"/>
<path d="M-52.2391 -13.0121L-53.3516 -13.5396C-21.3554 -80.7136 35.4502 -131.164 106.641 -155.551C181.725 -181.327 263.199 -175.365 336.049 -138.879L335.521 -137.766C262.846 -174.315 181.729 -180.072 106.995 -154.457C36.1837 -130.144 -20.3625 -79.9339 -52.2391 -13.0121Z" fill="white"/>
<path d="M179.155 196.075C78.9711 148.572 -10.3495 87.1238 -44.6953 38.1331L-44.8998 37.8363L-44.745 37.5099C23.216 -105.131 193.985 -184.308 335.915 -138.979L336.108 -138.887L336.229 -138.721C384.054 -70.4929 367.701 100.979 299.782 243.531L299.55 244.021L299.076 243.796C258.093 230.551 218.033 214.609 179.155 196.075V196.075ZM-43.4778 37.7111C4.29557 105.551 157.716 197.302 298.916 242.485C366.414 100.514 382.737 -69.9366 335.351 -137.866C194.126 -182.842 24.3017 -104.126 -43.4778 37.7111Z" fill="white"/>
<path d="M245.729 55.5921C159.221 14.5741 82.0966 -38.4931 52.4136 -80.8031L53.4267 -81.5219C94.5393 -22.8544 227.385 56.6149 349.569 95.616L349.189 96.7989C313.833 85.3556 279.271 71.5901 245.729 55.5921V55.5921Z" fill="white"/>
<path d="M35.1968 111.572L34.0843 111.045C101.936 -31.5573 237.298 -143.73 335.708 -139.041L335.653 -137.813C237.699 -142.468 102.844 -30.6363 35.1968 111.572Z" fill="white"/>
<path d="M158.324 185.253L157.212 184.725C225.045 42.3143 304.924 -102.816 335.265 -138.796L336.214 -138.001C305.923 -102.088 226.123 42.9159 158.324 185.253Z" fill="white"/>
<path d="M298.381 243.612L298.684 242.974C366.434 100.778 382.849 -70.1739 335.237 -138.047L334.14 -139.566L335.87 -139C401.73 -117.965 452.467 -72.8131 478.842 -12.0306C492.798 20.4365 499.335 55.6093 497.974 90.9241C496.758 128.358 487.453 165.646 470.296 201.754C485.042 222.918 488.357 240.298 479.729 251.942C461.52 276.704 392.274 273.578 299.017 243.805L298.381 243.612ZM337.259 -137.215C383.744 -68.1144 367.256 101.495 300.085 242.894C392.475 272.31 460.849 275.513 478.746 251.294C487.03 240.032 483.695 223.079 469.095 202.257L468.89 201.96L469.045 201.633C486.159 165.541 495.546 128.347 496.771 90.9713C498.107 55.8325 491.6 20.8377 477.723 -11.4711C451.797 -71.5139 401.938 -116.104 337.259 -137.215Z" fill="white"/>
<path d="M349.269 96.7457L349.648 95.5628C429.68 121.118 488.971 123.975 504.402 103.002C511.521 93.3136 508.647 78.7231 496.053 60.7596L497.059 60.0556C509.978 78.4822 512.849 93.5796 505.409 103.752C489.619 125.137 429.751 122.424 349.269 96.7457Z" fill="white"/>
<path d="M417.64 268.053L416.527 267.526C484.242 125.404 447.837 -56.4574 335.379 -137.888L336.093 -138.895C449.012 -57.1356 485.594 125.427 417.64 268.053Z" fill="white"/>
<path d="M478.771 253.195L477.659 252.668C545.345 110.605 481.557 -64.5801 335.468 -137.846L335.996 -138.958C482.7 -65.3824 546.746 110.525 478.771 253.195Z" fill="white"/>
<path d="M89.3261 378.514L89.2051 378.347C41.3945 310.126 57.7326 138.647 125.644 -3.89042L125.876 -4.37996L126.366 -4.14786C268.132 41.1041 422.335 133.389 470.108 201.538L470.312 201.834L470.158 202.161C402.204 344.787 231.434 423.964 89.5048 378.635L89.3261 378.514ZM126.525 -2.8734C59.049 139.089 42.7112 309.533 90.0972 377.462C231.329 422.424 401.145 343.686 468.919 201.9C421.101 134.039 267.689 42.3838 126.525 -2.8734Z" fill="white"/>
<path d="M371.956 321.179C330.837 262.526 197.991 183.057 75.8144 144.041L76.1866 142.873C198.585 181.957 331.714 261.634 372.977 320.482L371.956 321.179Z" fill="white"/>
<path d="M235.596 384.419C211.604 350.186 134.053 303.803 62.7147 281.025L63.0869 279.857C134.632 302.697 212.481 349.294 236.602 383.715L235.596 384.419Z" fill="white"/>
<path d="M89.6807 378.609L89.7359 377.382C187.764 382.072 322.604 270.233 390.333 128.081L391.445 128.609C323.52 271.176 188.15 383.327 89.6807 378.609Z" fill="white"/>
<path d="M90.1829 378.393L89.2485 377.605C119.525 341.685 199.325 196.681 267.132 54.3657L268.244 54.8932C200.396 197.297 120.524 342.413 90.1829 378.393Z" fill="white"/>
<path d="M58.1916 366.24C7.56549 342.236 -31.4575 302.42 -53.4104 251.547C-67.3668 219.08 -73.9031 183.907 -72.5429 148.592C-71.3334 111.173 -62.014 73.892 -44.8717 37.7769C-59.6179 16.6125 -62.9324 -0.76672 -54.3046 -12.4108C-36.0809 -37.1658 33.1726 -34.0546 126.422 -4.2666L127.088 -4.06021L126.785 -3.42233C59.0422 138.759 42.6558 309.689 90.2394 377.584L91.3359 379.103L89.6057 378.537C78.8707 375.147 68.3756 371.038 58.1916 366.24V366.24ZM125.363 -3.2971C32.9729 -32.7139 -35.4013 -35.9169 -53.2984 -11.6975C-61.5817 -0.435146 -58.2467 16.5177 -43.6472 37.34L-43.4427 37.6368L-43.5974 37.9632C-60.7108 74.0557 -70.0982 111.25 -71.3014 148.617C-72.6525 183.75 -66.1553 218.741 -52.2826 251.046C-26.3137 311.036 23.5003 355.606 88.2251 376.774C41.7188 307.718 58.1773 138.131 125.363 -3.2971Z" fill="white"/>
<path d="M-71.5158 179.532C-84.4274 161.127 -87.3055 146.008 -79.873 135.85C-64.1276 114.444 -4.3183 117.165 76.2373 142.842L75.8651 144.01C-4.16656 118.455 -63.4643 115.612 -78.8738 136.578C-86.0079 146.259 -83.1256 160.872 -70.5394 178.813L-71.5158 179.532Z" fill="white"/>
<path d="M-23.5278 301.674C-31.0976 290.817 -32.8258 281.893 -28.406 275.867C-19.1226 263.262 15.9223 264.798 63.0867 279.857L62.7145 281.025C16.0537 266.168 -18.4446 264.438 -27.4068 276.595C-31.4985 282.159 -29.8028 290.576 -22.5959 300.934L-23.5278 301.674Z" fill="white"/>
<path d="M89.355 378.491C-23.5421 296.761 -60.1459 114.17 7.80101 -28.4417L8.91351 -27.9142C-58.7943 114.193 -22.3893 296.054 90.0832 377.492L89.355 378.491Z" fill="white"/>
<path d="M89.4371 378.548C-57.2526 304.979 -121.298 129.072 -53.3304 -13.5838L-52.2179 -13.0563C-119.905 129.006 -56.1091 304.177 89.9943 377.45L89.4371 378.548Z" fill="white"/>
<path d="M115.239 401.302C104.768 396.087 95.8366 388.233 89.3263 378.514C78.6861 375.121 68.2847 371.021 58.1917 366.24C7.56556 342.236 -31.4575 302.42 -53.4103 251.547C-67.3667 219.08 -73.9031 183.907 -72.5429 148.592C-71.3146 111.018 -61.96 73.6633 -44.7169 37.4506L-44.2668 36.5012L-43.669 37.3479C4.01293 105.381 157.887 197.401 299.447 242.591L300.112 242.798L299.81 243.435C253.947 339.702 194.291 402.101 144.107 406.287C134.211 407.236 124.243 405.515 115.239 401.302V401.302ZM90.0974 377.462L90.2114 377.643C104.318 397.705 122.362 406.933 143.98 405.136C193.622 400.984 252.752 339.117 298.381 243.612C157.403 198.461 4.30276 106.954 -44.0827 38.9868C-61.0273 74.7233 -70.1412 111.647 -71.3365 148.692C-72.6876 183.824 -66.1904 218.816 -52.3177 251.12C-26.125 311.635 24.3714 356.527 89.9053 377.407L90.0974 377.462Z" fill="white"/>
<path d="M121.683 315.944C35.1751 274.926 -41.9497 221.859 -71.6257 179.534L-70.6196 178.83C-29.5071 237.497 103.339 316.967 225.537 355.975L225.158 357.158C189.797 345.712 155.23 331.944 121.683 315.944V315.944Z" fill="white"/>
<path d="M89.4974 381.448C38.9158 357.464 -6.15081 326.448 -23.4833 301.695L-22.4772 300.991C1.5151 335.224 79.0659 381.607 150.389 404.378L150.017 405.546C129.332 398.862 109.115 390.812 89.4974 381.448Z" fill="white"/>
<path d="M51.275 369.447C35.5671 361.947 22.4809 349.892 13.7193 334.851C-16.3804 284.531 -8.80721 200.853 34.0101 111.01L35.1968 111.572C-7.4447 201.044 -15.0341 284.297 14.8526 334.262C30.7998 360.902 56.7172 375.825 89.81 377.417L89.7548 378.644C76.4449 378.162 63.3642 375.036 51.275 369.447Z" fill="white"/>
<path d="M79.0366 386.536L78.7993 386.423C69.4503 380.391 111.447 280.784 157.205 184.74L158.317 185.268C98.2919 311.249 73.1933 381.348 79.4533 385.388C80.106 385.698 82.2899 385.843 89.2414 377.62L90.1758 378.408C84.6719 384.919 81.1281 387.527 79.0366 386.536Z" fill="white"/>
<path d="M115.239 401.302C105.419 396.646 96.6447 388.943 89.2052 378.347L88.1088 376.828L89.8459 377.379C120.71 387.102 153.044 391.319 185.371 389.84C224.359 365.355 265.15 313.199 298.624 242.946L298.842 242.486L299.332 242.718C350.769 259.149 394.797 267.452 426.909 267.47C443.587 247.339 457.728 225.235 469.016 201.656L469.467 200.706L470.079 201.56C485.069 222.785 488.355 240.224 479.774 251.963C471.69 262.956 453.528 268.462 427.666 268.556C367.169 341.621 276.482 387.162 185.764 391.08C171.491 399.993 157.449 405.236 144.093 406.353C134.196 407.279 124.232 405.535 115.239 401.302V401.302ZM91.2406 379.112C105.134 398.128 122.881 406.834 143.935 405.115C156.558 404.051 169.822 399.22 183.261 391.147C152.144 392.345 121.049 388.283 91.2851 379.134L91.2406 379.112ZM299.52 243.97C266.507 313.097 226.395 364.703 187.799 389.738C277.132 385.254 366.203 340.363 426.021 268.539C393.958 268.416 350.328 260.157 299.564 243.991L299.52 243.97ZM469.714 203.059C458.619 226.066 444.816 247.665 428.597 267.398C453.501 267.178 470.969 261.833 478.767 251.213C486.944 240.136 483.813 223.48 469.729 203.066L469.714 203.059Z" fill="white"/>
<path d="M225.187 357.172L225.567 355.989C305.583 381.538 364.874 384.395 380.305 363.421C387.425 353.733 384.55 339.142 371.956 321.179L372.977 320.482C385.882 338.901 388.767 354.006 381.327 364.178C365.537 385.563 305.729 382.878 225.187 357.172Z" fill="white"/>
<path d="M149.973 405.525L150.345 404.357C197.02 419.221 231.469 421.019 240.466 408.787C244.551 403.237 242.877 394.813 235.655 384.447L236.661 383.743C244.231 394.601 245.959 403.524 241.518 409.558C232.197 422.127 197.137 420.584 149.973 405.525Z" fill="white"/>
<path d="M123.528 398.801C111.538 393.094 100.099 386.295 89.3551 378.491L90.0832 377.492C139.673 413.415 198.364 425.2 255.397 410.633C322.656 393.466 381.358 341.353 416.527 267.526L417.64 268.053C382.337 342.163 323.31 394.576 255.693 411.809C211.482 423.195 164.67 418.588 123.528 398.801V398.801Z" fill="white"/>
<path d="M95.7428 381.611C93.6365 380.612 91.5302 379.613 89.409 378.607L89.9365 377.495C162.506 413.884 243.633 419.773 318.41 394.106C389.206 369.785 445.753 319.576 477.601 252.713L478.714 253.241C446.717 320.415 389.919 370.85 318.802 395.273C245.941 420.268 166.972 415.384 95.7428 381.611Z" fill="white"/>
<path d="M85.1868 389.542C79.1051 386.659 74.026 383.96 71.3678 382.554C67.5659 380.533 58.9598 375.617 53.3032 371.99C47.6466 368.363 47.7357 368.405 39.9348 363.017C38.4673 362.012 36.7741 360.755 35.1254 359.519L32.9623 357.912C23.1336 350.477 13.7676 342.45 4.91627 333.875C-0.190745 328.783 -6.08441 322.591 -10.1508 318.101C-13.5639 314.302 -17.9166 309.113 -20.9501 305.203C-25.6366 299.147 -31.3765 291.175 -35.2253 285.498C-39.0741 279.821 -43.2466 273.064 -45.8877 268.25C-53.57 254.814 -60.213 240.809 -65.7586 226.359C-68.3841 219.482 -71.1684 211.33 -72.8675 205.564C-74.898 198.696 -77.5463 188.61 -79.186 180.764C-82.4658 165.128 -84.4961 149.255 -85.2577 133.297C-85.6529 117.914 -85.1723 102.521 -83.8181 87.1925C-82.9805 78.6586 -81.6818 70.1762 -79.9274 61.7827C-78.9915 57.0117 -77.5461 51.3195 -76.1625 45.8342C-75.5313 43.3535 -74.9275 40.9688 -74.3933 38.7692C-72.1874 30.3202 -69.4366 22.0229 -66.1582 13.9294L-65.6697 12.7075C-62.2963 3.7739 -58.4464 -4.97242 -54.1364 -13.4938C-53.2096 -15.1802 -52.2203 -17.0368 -51.2028 -18.9528C-48.4044 -24.2033 -45.2168 -30.1596 -42.4124 -34.7714C-37.9493 -42.3306 -33.0763 -49.6401 -27.8154 -56.6673C-26.756 -57.982 -25.5841 -59.534 -24.3825 -61.072C-20.7503 -65.7818 -16.6314 -71.0967 -13.1245 -75.121C-7.71684 -81.3148 -0.511027 -88.9634 4.83687 -94.1498C10.1848 -99.3362 16.9604 -105.426 22.0502 -109.609C25.8332 -112.721 35.4745 -120.487 43.3258 -125.703C55.4067 -133.748 71.7967 -142.911 82.1555 -148.319C87.6773 -151.152 95.0311 -154.17 101.498 -156.773C103.684 -157.553 105.678 -158.424 107.613 -159.324C114.339 -162 121.206 -164.306 128.184 -166.232C137.361 -168.803 149.633 -171.579 158.053 -173.437C165.875 -175.062 173.785 -176.226 181.744 -176.921C191.91 -177.824 205.709 -178.495 216.053 -178.587C222.169 -178.649 231.255 -178.192 240.363 -177.362C247.426 -176.739 256.52 -175.534 262.969 -174.384C273.535 -172.597 283.997 -170.245 294.311 -167.336C299.805 -165.858 310.532 -162.425 318.267 -159.466C323.753 -157.355 328.025 -155.638 330.968 -154.334C339.165 -150.701 339.973 -150.336 348.501 -146.021C349.643 -145.479 359.892 -140.311 372.26 -132.484C379.53 -127.892 385.404 -123.69 385.643 -123.504C387.85 -121.912 390.959 -119.657 393.272 -117.906C394.966 -116.612 397.027 -114.981 398.903 -113.419L401.202 -111.602C403.674 -109.649 407.023 -106.789 411.153 -103.123C413.42 -101.084 416.521 -98.1972 420.597 -94.3022C425.894 -89.2651 431.817 -83.0588 435.687 -78.4986C438.555 -75.1218 441.682 -71.295 444.737 -67.4301C448.978 -62.4028 452.996 -57.1847 456.791 -51.7759L457.025 -51.4283C462.928 -42.9796 468.392 -34.2332 473.397 -25.2235C476.763 -18.7581 481.835 -8.99428 485.19 -1.62534C486.445 1.13166 490.743 10.728 493.278 18.5621L493.764 20.028C496.124 27.1975 499.071 36.1171 501.001 43.0826C502.654 49.1359 504.651 57.9139 505.98 64.9214C507.308 71.9288 508.732 82.1067 509.639 90.041C510.537 98.5702 511.096 107.085 511.084 112.857C511.076 119.848 511.083 130.408 510.643 138.195C510.304 144.084 509.434 152.738 508.314 161.347C506.406 175.43 503.449 189.351 499.467 202.994C494.78 218.423 489.029 233.509 482.257 248.143C478.88 255.264 473.841 264.667 469.806 271.566C467.02 276.332 463.168 282.118 459.764 287.227C458.732 288.791 457.728 290.295 456.817 291.68C451.876 298.818 446.571 305.697 440.923 312.289C436.682 317.401 430.464 324.155 425.134 329.532C419.805 334.909 412.508 341.715 406.144 347.128C402.537 350.215 397.99 353.673 393.596 357.04C391.659 358.52 389.786 359.94 388.11 361.253C381.002 366.463 373.616 371.283 365.985 375.691C361.96 378.125 356.963 380.771 352.133 383.332C350.071 384.425 348.102 385.473 346.309 386.457C338.099 390.63 329.665 394.347 321.045 397.59C314.206 400.289 306.136 403.094 300.501 404.747C292.275 407.152 280.697 410.074 270.997 412.216C264.338 413.692 255.596 414.925 250.983 415.536C245.563 416.237 238.439 416.856 232.713 417.321L230.976 417.46C219.572 418.328 208.121 418.393 196.709 417.656C186.986 416.97 179.68 416.286 174.371 415.604C167.715 414.737 158.732 413.222 151.984 411.821C144.991 410.322 136.851 408.407 131.303 406.812L130.557 406.585C127.787 405.798 124.358 404.791 121.748 403.935C117.031 402.388 111.024 400.267 107.324 398.912C107.027 398.772 99.3105 396.003 88.6274 391.137L85.1868 389.542ZM339.542 -148.851C337.02 -150.047 334.78 -151.109 330.312 -153.028C327.385 -154.325 323.127 -156.035 317.671 -158.131C309.98 -161.069 299.29 -164.503 293.825 -165.967C283.557 -168.848 273.145 -171.189 262.631 -172.981C256.232 -174.199 247.154 -175.323 240.114 -175.954C231.05 -176.763 222.022 -177.265 215.944 -177.167C205.614 -177.068 191.873 -176.406 181.729 -175.511C173.835 -174.848 165.987 -173.715 158.228 -172.119C149.807 -170.261 137.572 -167.486 128.417 -164.922C121.488 -163.01 114.669 -160.717 107.992 -158.054L101.862 -155.51C95.4241 -152.93 88.1422 -149.987 82.636 -147.11C72.2991 -141.709 55.9317 -132.518 43.9149 -124.57C36.1073 -119.369 26.4949 -111.626 22.7408 -108.536C17.701 -104.421 10.9902 -98.3911 5.62043 -93.1969C0.250671 -88.0027 -6.89027 -80.4141 -12.269 -74.243C-15.7471 -70.2413 -19.8659 -64.9264 -23.484 -60.2462C-24.6708 -58.7012 -25.8365 -57.2008 -26.917 -55.8416C-32.1467 -48.8464 -36.9957 -41.5744 -41.4429 -34.0573C-44.1973 -29.5127 -47.3708 -23.586 -50.1622 -18.3503C-51.1867 -16.4195 -52.1761 -14.5629 -53.1029 -12.8765C-57.3888 -4.39856 -61.2224 4.30057 -64.5876 13.1843L-65.0761 14.4062C-68.3233 22.4535 -71.0505 30.7009 -73.2409 39.0976C-73.7681 41.2824 -74.3789 43.6819 -75.0101 46.1626C-76.4086 51.6408 -77.8399 57.3034 -78.7617 62.0447C-80.5083 70.3868 -81.8009 78.8176 -82.6336 87.2999C-83.6644 100.547 -84.7497 119.274 -84.0692 133.243C-83.3253 149.146 -81.2984 164.964 -78.0084 180.541C-76.4444 188.278 -73.7375 198.356 -71.7148 205.202C-70.0313 210.924 -67.2548 219.054 -64.652 225.903C-59.1121 240.292 -52.4927 254.242 -44.8505 267.634C-42.2101 272.411 -38.0525 279.161 -34.2341 284.787C-30.4157 290.413 -24.6235 298.429 -19.9448 304.463C-16.9261 308.365 -12.6109 313.518 -9.20562 317.295C-5.17671 321.749 0.72397 327.927 5.81615 333.012C14.6163 341.556 23.9278 349.557 33.6991 356.971L35.877 358.585C37.5179 359.799 39.211 361.056 40.6489 362.047C48.3756 367.4 48.3756 367.4 53.9728 370.999C59.5701 374.598 68.1028 379.516 71.9258 381.492C75.0961 383.159 81.6304 386.621 89.1853 390.076C99.824 394.92 107.475 397.712 107.786 397.823C111.478 399.156 117.463 401.285 122.181 402.831C124.761 403.673 128.196 404.666 130.945 405.461L131.691 405.687C137.209 407.268 145.291 409.229 152.29 410.676C159.001 412.041 167.955 413.579 174.582 414.432C179.854 415.115 187.145 415.792 196.846 416.485C208.198 417.209 219.586 417.145 230.929 416.293L232.652 416.147C238.333 415.661 245.48 415.071 250.878 414.378C254.568 413.874 263.912 412.599 270.768 411.09C280.446 408.956 291.995 406.019 300.192 403.637C305.804 401.992 313.831 399.203 320.626 396.52C329.186 393.287 337.557 389.576 345.7 385.405C347.486 384.435 349.476 383.38 351.532 382.302C356.376 379.748 361.284 377.06 365.325 374.669C372.869 370.264 380.174 365.461 387.209 360.28C388.885 358.968 390.764 357.533 392.701 356.053C397.096 352.686 401.607 349.265 405.185 346.201C411.577 340.728 418.997 333.854 424.118 328.687C429.239 323.52 435.642 316.49 439.827 311.497C445.446 304.945 450.725 298.108 455.643 291.015C456.554 289.63 457.565 288.11 458.59 286.562C461.986 281.467 465.824 275.674 468.596 270.938C472.617 264.068 477.591 254.689 481.004 247.604C487.757 232.995 493.484 217.934 498.143 202.53C502.133 188.966 505.101 175.123 507.024 161.117C508.123 152.553 509.015 143.891 509.333 138.046C509.774 130.296 509.774 119.758 509.762 112.811C509.76 107.105 509.223 98.6198 508.312 90.1202C507.486 82.243 506.021 72.1908 504.691 65.1099C503.361 58.0291 501.374 49.383 499.721 43.3664C497.829 36.4369 494.89 27.5391 492.538 20.3915L492.052 18.9256C489.504 11.1946 485.23 1.6638 483.99 -1.08618C480.635 -8.41841 475.578 -18.1751 472.22 -24.6187C467.225 -33.5885 461.781 -42.3007 455.909 -50.722L455.69 -51.0259C452.351 -55.4797 448.115 -61.0677 443.711 -66.6082C416.009 -99.4936 379.026 -123.916 335.749 -137.786L335.63 -137.842L336.002 -139.01C369.974 -128.401 401.124 -110.284 427.144 -86.0013C424.712 -88.5354 422.132 -91.1031 419.749 -93.3959C415.673 -97.2909 412.588 -100.171 410.328 -102.187C406.213 -105.847 402.886 -108.678 400.429 -110.624L398.13 -112.441C396.241 -113.936 394.172 -115.589 392.514 -116.921C390.223 -118.679 387.144 -120.921 384.93 -122.497C384.648 -122.631 378.846 -126.872 371.606 -131.449C359.29 -139.233 349.079 -144.366 347.944 -144.922C343.947 -146.762 341.693 -147.831 339.542 -148.851Z" fill="white"/>
<path d="M469.736 203.051L469.123 202.197C421.441 134.165 267.582 42.1513 126.022 -3.03889L125.342 -3.25232L125.644 -3.8902C171.507 -100.156 231.184 -162.563 281.369 -166.749C303.09 -168.57 322.016 -158.942 336.143 -138.961C401.961 -117.838 452.57 -72.8004 478.91 -11.907C492.867 20.5601 499.403 55.7329 498.043 91.0476C496.815 128.622 487.46 165.976 470.21 202.204L469.736 203.051ZM246.285 43.537C345.876 90.7584 434.777 151.789 469.523 200.625C486.468 164.888 495.589 127.95 496.799 90.9121C498.135 55.7733 491.628 20.7785 477.751 -11.5302C451.558 -72.0449 401.076 -116.931 335.542 -137.811L335.364 -137.895L335.251 -138.076C321.144 -158.138 303.1 -167.366 281.482 -165.569C231.841 -161.38 172.71 -99.5132 127.059 -4.0006C167.8 9.21653 207.628 25.0966 246.285 43.537V43.537Z" fill="white"/>
<path d="M496.038 60.7528C454.897 2.14452 322.072 -77.3693 199.896 -116.385L200.268 -117.553C322.651 -78.4756 455.795 1.20774 497.044 60.0487L496.038 60.7528Z" fill="white"/>
<path d="M391.445 128.609L390.333 128.081C432.959 38.6024 440.564 -44.6432 410.669 -94.6303C394.722 -121.27 368.84 -136.268 335.712 -137.785L335.708 -139.04C369.242 -137.422 395.501 -122.3 411.669 -95.2828C441.872 -44.9129 434.248 38.759 391.445 128.609Z" fill="white"/>
<path d="M268.244 54.8934L267.131 54.3659C327.142 -71.6225 352.262 -141.73 345.98 -145.762C345.37 -146.16 343.151 -146.232 336.214 -138.001L335.265 -138.796C340.99 -145.584 344.616 -148.135 346.656 -146.804C355.99 -140.779 314.008 -41.1651 268.244 54.8934Z" fill="white"/>
<path d="M-44.0829 38.987L-44.6955 38.1333C-59.6134 16.833 -62.9443 -0.626682 -54.3329 -12.3512C-46.2347 -23.3379 -28.0721 -28.8439 -2.20388 -28.9519C58.3592 -102.041 148.981 -147.558 239.684 -151.483C253.957 -160.396 267.998 -165.64 281.429 -166.721C303.208 -168.55 322.179 -158.864 336.302 -138.722L337.398 -137.203L335.646 -137.761C304.788 -147.489 272.458 -151.705 240.137 -150.215C201.133 -125.737 160.342 -73.5809 126.876 -3.30645L126.643 -2.81693L126.169 -3.04199C74.7165 -19.48 30.704 -27.7753 -1.42352 -27.8006C-18.1006 -7.66926 -32.2421 14.4342 -43.5304 38.0134L-44.0829 38.987ZM-3.17108 -27.7934C-28.075 -27.5734 -45.5285 -22.2217 -53.3407 -11.6082C-61.51 -0.509841 -58.3724 16.1314 -44.2802 36.5677C-33.1885 13.5537 -19.3877 -8.05304 -3.17108 -27.7934V-27.7934ZM237.619 -150.155C148.286 -145.671 59.1934 -100.773 -0.624999 -28.9482C31.4829 -28.805 75.1129 -20.5457 125.817 -4.40789C158.889 -73.5064 199.023 -125.121 237.619 -150.155ZM309.82 -160.655C300.968 -164.784 291.168 -166.456 281.447 -165.495C268.824 -164.431 255.575 -159.593 242.086 -151.453C273.22 -152.699 304.34 -148.675 334.133 -139.551C327.907 -148.525 319.526 -155.791 309.76 -160.683L309.82 -160.655Z" fill="white"/>
<path d="M8.91346 -27.9142L7.80096 -28.4417C43.1038 -102.551 102.145 -154.958 169.755 -172.213C227.11 -186.808 286.198 -175.017 336.093 -138.894L335.379 -137.888C285.783 -173.796 227.098 -185.596 170.066 -171.03C102.821 -153.892 44.0616 -101.697 8.91346 -27.9142Z" fill="white"/>
<path d="M-52.2391 -13.012L-53.3516 -13.5395C-21.3554 -80.7134 35.4502 -131.164 106.641 -155.551C181.725 -181.327 263.199 -175.365 336.049 -138.879L335.521 -137.766C262.846 -174.315 181.729 -180.071 106.995 -154.457C36.1837 -130.144 -20.3625 -79.9338 -52.2391 -13.012Z" fill="white"/>
<path d="M179.155 196.075C78.971 148.572 -10.3496 87.1238 -44.6954 38.1331L-44.8999 37.8364L-44.7451 37.51C23.2158 -105.131 193.985 -184.308 335.915 -138.979L336.108 -138.887L336.228 -138.721C384.054 -70.4929 367.701 100.979 299.782 243.532L299.55 244.021L299.075 243.796C258.093 230.551 218.032 214.609 179.155 196.075V196.075ZM-43.4779 37.7111C4.29544 105.551 157.716 197.302 298.916 242.485C366.414 100.514 382.736 -69.9366 335.35 -137.865C194.126 -182.842 24.3016 -104.126 -43.4779 37.7111Z" fill="white"/>
<path d="M245.729 55.5922C159.221 14.5741 82.0965 -38.493 52.4135 -80.803L53.4266 -81.5219C94.5391 -22.8543 227.385 56.615 349.569 95.616L349.189 96.799C313.833 85.3557 279.271 71.5902 245.729 55.5922V55.5922Z" fill="white"/>
<path d="M35.1968 111.573L34.0843 111.045C101.936 -31.5572 237.298 -143.73 335.708 -139.04L335.653 -137.813C237.699 -142.468 102.844 -30.6362 35.1968 111.573Z" fill="white"/>
<path d="M158.324 185.253L157.212 184.725C225.045 42.3143 304.924 -102.816 335.265 -138.796L336.214 -138.001C305.923 -102.088 226.123 42.916 158.324 185.253Z" fill="white"/>
<path d="M298.381 243.612L298.684 242.974C366.434 100.778 382.849 -70.1739 335.236 -138.047L334.14 -139.566L335.87 -139C401.73 -117.965 452.467 -72.8131 478.842 -12.0305C492.798 20.4366 499.334 55.6094 497.974 90.9241C496.758 128.358 487.453 165.646 470.296 201.754C485.042 222.918 488.357 240.298 479.729 251.942C461.52 276.704 392.274 273.578 299.017 243.805L298.381 243.612ZM337.258 -137.215C383.744 -68.1143 367.256 101.495 300.085 242.894C392.475 272.31 460.849 275.514 478.746 251.294C487.029 240.032 483.694 223.079 469.095 202.257L468.89 201.96L469.045 201.633C486.159 165.541 495.546 128.347 496.771 90.9714C498.107 55.8325 491.6 20.8377 477.722 -11.471C451.797 -71.5139 401.938 -116.104 337.258 -137.215Z" fill="white"/>
<path d="M349.269 96.7458L349.648 95.5629C429.68 121.119 488.971 123.976 504.402 103.002C511.521 93.3137 508.647 78.7233 496.053 60.7598L497.059 60.0557C509.978 78.4824 512.849 93.5797 505.409 103.752C489.619 125.137 429.751 122.424 349.269 96.7458Z" fill="white"/>
<path d="M417.64 268.053L416.527 267.526C484.242 125.404 447.837 -56.4574 335.379 -137.888L336.093 -138.894C449.012 -57.1355 485.594 125.427 417.64 268.053Z" fill="white"/>
<path d="M478.771 253.196L477.659 252.668C545.345 110.605 481.557 -64.58 335.468 -137.846L335.996 -138.958C482.7 -65.3823 546.746 110.525 478.771 253.196Z" fill="white"/>
<path d="M89.3261 378.514L89.2051 378.347C41.3945 310.126 57.7326 138.647 125.644 -3.8903L125.876 -4.37984L126.366 -4.14774C268.132 41.1042 422.335 133.389 470.108 201.538L470.312 201.835L470.158 202.161C402.204 344.787 231.434 423.964 89.5049 378.635L89.3261 378.514ZM126.525 -2.87328C59.049 139.09 42.7112 309.533 90.0972 377.462C231.329 422.424 401.145 343.686 468.919 201.9C421.101 134.039 267.689 42.384 126.525 -2.87328Z" fill="white"/>
<path d="M371.956 321.179C330.837 262.526 197.991 183.057 75.8143 144.041L76.1864 142.873C198.585 181.957 331.714 261.634 372.977 320.482L371.956 321.179Z" fill="white"/>
<path d="M235.596 384.419C211.603 350.186 134.053 303.803 62.7146 281.025L63.0868 279.857C134.632 302.697 212.481 349.294 236.602 383.715L235.596 384.419Z" fill="white"/>
<path d="M89.6805 378.609L89.7358 377.382C187.764 382.072 322.604 270.233 390.333 128.081L391.445 128.609C323.519 271.176 188.15 383.327 89.6805 378.609Z" fill="white"/>
<path d="M90.1829 378.393L89.2486 377.605C119.525 341.685 199.325 196.681 267.132 54.3658L268.244 54.8933C200.396 197.297 120.524 342.413 90.1829 378.393Z" fill="white"/>
<path d="M58.1915 366.24C7.56538 342.236 -31.4577 302.42 -53.4105 251.547C-67.3669 219.08 -73.9032 183.907 -72.5431 148.592C-71.3336 111.173 -62.0142 73.8921 -44.8718 37.7769C-59.6181 16.6126 -62.9326 -0.766665 -54.3047 -12.4107C-36.081 -37.1658 33.1725 -34.0546 126.422 -4.26654L127.087 -4.06015L126.785 -3.42227C59.0421 138.759 42.6557 309.689 90.2393 377.584L91.3358 379.103L89.6056 378.537C78.8705 375.147 68.3755 371.038 58.1915 366.24V366.24ZM125.363 -3.29704C32.9728 -32.7138 -35.4014 -35.9169 -53.2985 -11.6974C-61.5818 -0.43509 -58.2468 16.5178 -43.6473 37.3401L-43.4428 37.6368L-43.5976 37.9632C-60.711 74.0557 -70.0983 111.25 -71.3015 148.617C-72.6526 183.75 -66.1554 218.741 -52.2827 251.046C-26.3138 311.036 23.5002 355.606 88.225 376.774C41.7187 307.718 58.1772 138.131 125.363 -3.29704Z" fill="white"/>
<path d="M-71.5158 179.532C-84.4274 161.127 -87.3055 146.008 -79.873 135.85C-64.1276 114.444 -4.31832 117.166 76.2373 142.842L75.8651 144.01C-4.16657 118.455 -63.4643 115.613 -78.8738 136.578C-86.0079 146.26 -83.1256 160.872 -70.5394 178.814L-71.5158 179.532Z" fill="white"/>
<path d="M-23.528 301.674C-31.0977 290.817 -32.8259 281.893 -28.4061 275.867C-19.1228 263.262 15.9221 264.798 63.0865 279.857L62.7144 281.025C16.0536 266.169 -18.4447 264.438 -27.4069 276.595C-31.4986 282.159 -29.8029 290.577 -22.5961 300.935L-23.528 301.674Z" fill="white"/>
<path d="M89.3549 378.491C-23.5422 296.761 -60.146 114.17 7.80088 -28.4416L8.91338 -27.9141C-58.7944 114.193 -22.3894 296.054 90.0831 377.492L89.3549 378.491Z" fill="white"/>
<path d="M89.4369 378.548C-57.2527 304.979 -121.299 129.072 -53.3306 -13.5838L-52.2181 -13.0563C-119.905 129.006 -56.1092 304.177 89.9941 377.45L89.4369 378.548Z" fill="white"/>
<path d="M115.239 401.302C104.768 396.087 95.8366 388.233 89.3262 378.514C78.6861 375.121 68.2847 371.021 58.1916 366.24C7.56551 342.236 -31.4575 302.42 -53.4104 251.547C-67.3668 219.08 -73.9031 183.907 -72.543 148.592C-71.3146 111.018 -61.9601 73.6634 -44.717 37.4507L-44.2668 36.5013L-43.669 37.348C4.01287 105.381 157.887 197.401 299.447 242.591L300.112 242.798L299.81 243.436C253.947 339.702 194.291 402.101 144.106 406.287C134.211 407.236 124.243 405.515 115.239 401.302V401.302ZM90.0973 377.462L90.2113 377.643C104.318 397.705 122.362 406.933 143.98 405.137C193.622 400.984 252.752 339.117 298.381 243.612C157.403 198.461 4.3027 106.954 -44.0828 38.9869C-61.0274 74.7234 -70.1413 111.647 -71.3366 148.692C-72.6877 183.824 -66.1905 218.816 -52.3178 251.12C-26.125 311.635 24.3714 356.527 89.9053 377.407L90.0973 377.462Z" fill="white"/>
<path d="M121.683 315.944C35.1748 274.926 -41.95 221.859 -71.6259 179.534L-70.6199 178.83C-29.5073 237.497 103.338 316.967 225.537 355.975L225.158 357.158C189.797 345.712 155.23 331.944 121.683 315.944V315.944Z" fill="white"/>
<path d="M89.4973 381.448C38.9157 357.464 -6.15092 326.448 -23.4834 301.695L-22.4774 300.991C1.515 335.224 79.0658 381.607 150.389 404.378L150.017 405.546C129.332 398.862 109.115 390.812 89.4973 381.448Z" fill="white"/>
<path d="M51.2748 369.447C35.567 361.948 22.4808 349.893 13.7192 334.851C-16.3805 284.531 -8.80733 200.853 34.01 111.01L35.1967 111.572C-7.44481 201.044 -15.0342 284.297 14.8525 334.262C30.7997 360.902 56.7171 375.825 89.8099 377.417L89.7547 378.644C76.4448 378.162 63.3641 375.036 51.2748 369.447Z" fill="white"/>
<path d="M79.0366 386.536L78.7992 386.423C69.4502 380.391 111.447 280.784 157.205 184.74L158.317 185.268C98.2918 311.249 73.1933 381.348 79.4533 385.389C80.1059 385.698 82.2899 385.843 89.2413 377.62L90.1757 378.408C84.6719 384.92 81.1281 387.527 79.0366 386.536Z" fill="white"/>
<path d="M115.239 401.302C105.419 396.646 96.6447 388.943 89.2052 378.347L88.1087 376.828L89.8459 377.379C120.71 387.102 153.044 391.32 185.37 389.84C224.359 365.355 265.15 313.199 298.624 242.946L298.842 242.486L299.332 242.718C350.769 259.149 394.797 267.452 426.909 267.47C443.587 247.339 457.728 225.235 469.016 201.656L469.466 200.707L470.079 201.56C485.069 222.786 488.355 240.224 479.773 251.963C471.69 262.956 453.528 268.462 427.666 268.556C367.169 341.621 276.482 387.162 185.764 391.08C171.49 399.993 157.449 405.236 144.093 406.353C134.196 407.279 124.232 405.535 115.239 401.302V401.302ZM91.2406 379.112C105.134 398.128 122.881 406.834 143.935 405.115C156.558 404.051 169.822 399.22 183.261 391.147C152.144 392.345 121.049 388.283 91.2851 379.134L91.2406 379.112ZM299.52 243.97C266.507 313.097 226.395 364.703 187.799 389.738C277.132 385.254 366.203 340.363 426.021 268.539C393.958 268.417 350.328 260.157 299.564 243.991L299.52 243.97ZM469.714 203.059C458.619 226.066 444.816 247.665 428.597 267.398C453.501 267.178 470.969 261.833 478.766 251.213C486.944 240.136 483.813 223.48 469.729 203.066L469.714 203.059Z" fill="white"/>
<path d="M225.187 357.172L225.566 355.989C305.583 381.538 364.874 384.395 380.305 363.421C387.425 353.733 384.55 339.142 371.956 321.179L372.977 320.482C385.882 338.902 388.767 354.006 381.327 364.178C365.537 385.563 305.729 382.878 225.187 357.172Z" fill="white"/>
<path d="M149.973 405.525L150.345 404.357C197.02 419.221 231.469 421.019 240.466 408.787C244.551 403.237 242.877 394.813 235.655 384.447L236.661 383.743C244.231 394.601 245.959 403.524 241.517 409.558C232.197 422.127 197.137 420.584 149.973 405.525Z" fill="white"/>
<path d="M123.528 398.801C111.538 393.094 100.099 386.295 89.3549 378.491L90.0831 377.492C139.673 413.415 198.364 425.2 255.397 410.633C322.656 393.466 381.358 341.353 416.527 267.526L417.64 268.053C382.337 342.163 323.31 394.576 255.693 411.809C211.481 423.195 164.67 418.588 123.528 398.801V398.801Z" fill="white"/>
<path d="M95.7427 381.611C93.6364 380.612 91.53 379.613 89.4089 378.607L89.9364 377.495C162.506 413.884 243.632 419.773 318.41 394.106C389.206 369.785 445.752 319.576 477.601 252.713L478.713 253.241C446.717 320.415 389.919 370.85 318.802 395.273C245.941 420.268 166.972 415.384 95.7427 381.611Z" fill="white"/>
<path d="M84.8319 389.374L82.8145 388.417C79.171 386.599 74.547 384.243 71.3321 382.555C64.3973 378.904 56.9577 374.286 53.394 372.069C48.0895 368.773 40.6446 363.553 40.1599 363.196C34.1952 358.878 29.9377 355.787 24.9911 351.697C22.0623 349.291 18.7371 346.533 16.2908 344.374C13.074 341.541 9.43736 338.29 6.81321 335.701L5.4106 334.291C2.27675 331.206 -1.5931 327.337 -4.40215 324.333C-9.35136 319.061 -12.9385 315.016 -15.3961 311.961C-19.136 307.281 -26.1803 298.381 -31.1952 291.37C-35.5529 285.234 -39.7981 278.86 -42.2177 274.46C-43.1103 272.856 -44.131 271.1 -45.2117 269.28C-47.711 264.933 -50.3086 260.449 -52.2247 256.597C-53.949 253.145 -59.8988 241.093 -63.9191 231.065C-66.0338 225.793 -69.2599 217.231 -71.3622 210.438C-73.2361 204.39 -76.6546 192.939 -78.4914 184.092C-82.0253 168.232 -84.2552 152.111 -85.1585 135.888C-85.7332 120.526 -85.392 105.143 -84.1367 89.8213C-83.3304 81.1606 -82.0613 72.5493 -80.3349 64.0241C-79.4647 59.2766 -78.07 53.6148 -76.7301 48.145C-76.1068 45.6425 -75.5397 43.2586 -74.9992 41.0075C-72.8453 32.5017 -70.1499 24.1422 -66.9295 15.9803C-63.7035 7.64375 -59.6515 -1.93643 -56.5925 -8.42617C-54.3136 -13.2326 -51.1244 -19.1155 -48.3026 -24.3005C-47.2133 -26.2914 -46.181 -28.2003 -45.2409 -29.9531C-40.5154 -38.5776 -35.1631 -46.8434 -29.227 -54.6839L-26.2386 -58.5725C-22.5079 -63.4901 -18.2695 -69.0572 -14.6563 -73.2673C-9.50949 -79.294 -2.48568 -86.8654 2.81695 -92.1096C7.91803 -97.1587 14.7633 -103.434 19.8523 -107.653C23.4392 -110.658 32.6003 -118.215 40.1665 -123.368C51.7218 -131.261 67.6918 -140.496 78.7723 -146.508C86.3878 -150.402 94.1941 -153.91 102.162 -157.021C110.644 -160.464 119.3 -163.462 128.095 -166.002C133.563 -167.497 152.602 -172.551 167.871 -174.905C175.322 -176.059 186.419 -177.43 195.215 -177.82L196.741 -177.896C201.605 -178.115 207.673 -178.381 212.321 -178.376C216.97 -178.37 225.952 -178.272 232.572 -177.75L235.051 -177.574C238.03 -177.342 241.405 -177.105 244.078 -176.764C249.857 -176.04 259.538 -174.884 266.521 -173.518C279.062 -171.216 291.448 -168.134 303.606 -164.292L303.42 -163.708L303.606 -164.292C310.895 -161.962 318.745 -159.13 324.612 -156.712C329.796 -154.581 331.729 -153.791 336.838 -151.46C341.946 -149.129 347.073 -146.607 348.432 -145.835C351.936 -144.028 355.247 -142.313 360.011 -139.6C364.774 -136.887 367.229 -135.396 372.109 -132.355C376.306 -129.711 376.872 -129.334 385.247 -123.546C386.863 -122.434 388.758 -121.027 390.436 -119.777L392.293 -118.406C396.686 -115.179 404.746 -108.613 409.191 -104.653C415.251 -99.2717 422.826 -92.0278 428.072 -86.6151C432.463 -82.0805 437.515 -76.4507 440.943 -72.2632C445.54 -66.6313 451.918 -58.3562 456.757 -51.6646C458.605 -48.9714 460.423 -46.2923 462.182 -43.6413C464.191 -40.6357 466.125 -37.6653 467.679 -35.0027C472.912 -25.9619 478.796 -14.9961 482.662 -7.0577C488.431 4.76241 494.307 21.7209 498.237 33.4326C501.219 42.4897 503.557 51.7464 505.233 61.1334L506.047 66.0073C507.243 72.9882 508.576 80.9061 509.324 87.2207C510.257 94.7896 510.808 102.401 510.975 110.025L510.998 113.27C511.043 120.342 511.08 129.153 510.75 135.865C510.42 142.577 509.571 151.84 508.619 159.02C507.667 166.2 505.829 176.667 504.127 184.472C502.316 192.698 499.275 203.248 498.049 207.445C493.775 221.374 488.472 234.966 482.183 248.109C474.936 262.495 466.854 276.445 457.977 289.887C453.229 297.109 447.995 304 442.311 310.513C440.847 312.144 439.226 313.992 437.562 315.892C433.861 320.097 430.03 324.458 426.658 327.892C420.8 334.04 414.611 339.864 408.12 345.339C406.531 346.621 404.799 348.053 402.994 349.523C398.807 352.988 394.098 356.788 390.215 359.653C383.821 364.325 375.355 370.032 369.156 373.833C362.957 377.635 355.234 381.968 349.559 384.855C346.384 386.456 335.271 391.998 326.285 395.623C317.706 399.041 310.76 401.544 305.845 403.174C297.617 405.814 287.724 408.591 280.68 410.266C275.178 411.564 267.026 413.276 260.635 414.225C252.232 415.51 241.088 416.713 233.472 417.408C221.261 418.238 209.011 418.357 196.785 417.765C192.564 417.471 181.819 416.682 173.528 415.585C167.048 414.73 158.079 413.184 151.198 411.757C144.316 410.329 136.233 408.295 130.612 406.702C119.832 403.571 115.962 402.154 107.49 399.063C105.588 398.362 98.616 395.746 88.719 391.253L84.8319 389.374ZM339.573 -148.837L336.265 -150.405C331.171 -152.729 329.253 -153.512 324.098 -155.629C318.232 -158.047 310.426 -160.858 303.174 -163.188C291.067 -167.012 278.733 -170.075 266.244 -172.359C259.306 -173.668 249.639 -174.89 243.895 -175.688C241.252 -176.014 237.898 -176.26 234.934 -176.484L232.456 -176.66C225.872 -177.183 216.992 -177.269 212.293 -177.281C207.593 -177.293 201.628 -177.014 196.771 -176.809L195.245 -176.733C186.134 -176.227 177.054 -175.263 168.04 -173.844C152.823 -171.484 133.843 -166.438 128.403 -164.965C119.655 -162.444 111.047 -159.46 102.616 -156.025C94.6818 -152.935 86.9093 -149.447 79.3278 -145.572C68.2762 -139.583 52.3719 -130.372 40.8455 -122.5C33.33 -117.379 24.1901 -109.866 20.618 -106.854C15.5368 -102.613 8.72042 -96.3603 3.6123 -91.2964C-1.49582 -86.2326 -8.65634 -78.526 -13.7891 -72.529C-17.3734 -68.3415 -21.6048 -62.7893 -25.3213 -57.9014C-26.3511 -56.5727 -27.3511 -55.2299 -28.3019 -53.9909C-34.2114 -46.2123 -39.5311 -38.0028 -44.2166 -29.4311C-45.1567 -27.6783 -46.189 -25.7694 -47.2784 -23.7785C-50.0932 -18.6084 -53.2752 -12.7402 -55.5331 -7.97834C-58.5999 -1.51047 -62.6229 8.04705 -65.8349 16.3539C-69.0344 24.464 -71.7161 32.769 -73.8639 41.2187C-74.3684 43.4324 -74.9715 45.8538 -75.5871 48.3782C-76.9348 53.826 -78.3153 59.4581 -79.1934 64.1838C-80.9002 72.6667 -82.1433 81.2363 -82.917 89.8545C-84.1712 105.122 -84.5111 120.451 -83.9349 135.759C-83.033 151.923 -80.8118 167.986 -77.2934 183.787C-75.4652 192.576 -72.0693 203.998 -70.1962 210.01C-68.1095 216.759 -64.8701 225.254 -62.7843 230.549C-58.7944 240.527 -52.8524 252.556 -51.2383 256.011C-49.3299 259.841 -46.7549 264.296 -44.2486 268.628L-41.2617 273.823C-37.8993 279.597 -34.2483 285.197 -30.3226 290.602C-25.3156 297.592 -18.301 306.478 -14.6133 311.115C-12.1572 314.097 -8.60604 318.179 -3.70134 323.43C-0.847793 326.454 3.03537 330.258 6.11845 333.373L7.54292 334.775C10.1374 337.35 13.7663 340.579 16.9682 343.405C19.4067 345.543 22.7171 348.293 25.6311 350.693C30.555 354.753 34.7976 357.837 40.6734 362.113C41.2253 362.52 48.6178 367.697 53.8997 370.964C57.4634 373.181 64.8733 377.785 71.7636 381.415C74.9785 383.103 79.5877 385.452 83.2312 387.271C85.115 388.164 87.6812 389.38 89.0162 390.013C98.8835 394.492 105.819 397.108 107.713 397.788C116.164 400.887 120.011 402.275 130.753 405.406C136.346 407.022 144.384 408.999 151.243 410.434C158.103 411.869 167.042 413.401 173.485 414.257C181.747 415.34 192.455 416.129 196.676 416.423C208.838 417.02 221.024 416.907 233.173 416.085C240.773 415.383 251.881 414.181 260.262 412.904C266.587 411.942 274.702 410.23 280.197 408.947C287.227 407.302 297.083 404.525 305.334 401.915C310.28 400.335 317.13 397.805 325.687 394.395C334.638 390.844 345.684 385.325 348.905 383.745C354.515 380.955 362.389 376.457 368.407 372.769C374.425 369.082 383 363.336 389.386 358.642C393.255 355.807 398 351.97 402.107 348.557L407.248 344.381C413.702 338.927 419.859 333.13 425.692 327.016C429.036 323.605 432.844 319.251 436.539 315.062C438.203 313.162 439.824 311.314 441.295 309.667C446.928 303.214 452.12 296.388 456.833 289.235C465.675 275.83 473.731 261.923 480.961 247.584C487.225 234.502 492.505 220.972 496.756 207.105C497.969 202.938 501.024 192.358 502.807 184.228C504.503 176.437 506.295 166.258 507.287 158.879C508.278 151.5 509.096 142.457 509.413 135.812C509.729 129.167 509.692 120.355 509.648 113.284L509.639 110.046C509.453 102.487 508.889 94.9425 507.948 87.4405C507.208 81.1477 505.883 73.2516 504.695 66.2926L503.866 61.4117C502.209 52.088 499.89 42.8943 496.925 33.9007C493.003 22.2108 487.128 5.32576 481.412 -6.45139L479.979 -9.32948C506.289 52.9672 504.242 126.256 473.264 195.421C472.293 197.468 471.404 199.535 470.426 201.597L470.187 202.102C402.233 344.728 231.464 423.905 89.534 378.576L89.9061 377.408C231.238 422.617 401.374 343.667 469.074 201.574L469.313 201.07C508.984 117.403 505.747 26.9819 461.072 -42.9865L459.163 -45.8179C457.928 -47.6574 456.745 -49.4172 455.719 -51.0847C450.895 -57.7326 444.607 -65.9655 440.003 -71.5825C436.538 -75.7694 431.56 -81.3639 427.207 -85.8626C421.997 -91.2761 414.437 -98.5129 408.474 -103.83C404.03 -107.754 396.022 -114.276 391.659 -117.49L389.728 -118.859C388.058 -120.087 386.178 -121.487 384.643 -122.542C376.224 -128.351 375.725 -128.715 371.476 -131.366C366.618 -134.414 364.334 -135.806 359.422 -138.589C354.51 -141.372 351.392 -142.996 347.851 -144.839C346.767 -145.426 343.325 -147.057 339.573 -148.837Z" fill="white"/>
<path d="M88.6507 379.938L88.5297 379.771C40.4764 311.181 56.8384 138.732 125.167 -4.57064L125.414 -5.08986L125.903 -4.85777C268.453 40.6569 423.496 133.431 471.541 201.963L471.746 202.26L471.591 202.586C403.278 345.969 231.519 425.549 88.8576 380L88.6507 379.938ZM126.107 -3.5255C58.2586 139.224 41.8376 310.609 89.5093 378.855C231.569 424.101 402.28 344.933 470.41 202.317C422.262 134.118 268.083 41.8984 126.107 -3.5255Z" fill="white"/>
<path d="M235.781 385.906C211.66 351.484 133.691 304.795 61.955 281.937L62.3272 280.769C134.264 303.74 212.537 350.592 236.794 385.187L235.781 385.906Z" fill="white"/>
<path d="M372.846 322.291C331.499 263.312 197.917 183.403 75.0604 144.174L75.4326 143.006C198.511 182.304 332.376 262.42 373.852 321.587L372.846 322.291Z" fill="white"/>
<path d="M89.0051 380.033L89.0603 378.806C187.625 383.514 323.209 271.065 391.31 128.127L392.423 128.654C324.124 272.008 188.011 384.769 89.0051 380.033Z" fill="white"/>
<path d="M89.5074 379.817L88.5582 379.022C119.014 342.914 199.246 197.116 267.432 53.9996L268.545 54.5271C200.323 197.717 120.013 343.643 89.5074 379.817Z" fill="white"/>
<path d="M57.331 367.595C6.42305 343.457 -32.8029 303.417 -54.922 252.32C-68.9552 219.653 -75.5139 184.263 -74.1191 148.735C-72.9205 111.147 -63.533 73.6081 -46.2844 37.3071C-61.1142 16.0124 -64.4005 -1.42624 -55.7891 -13.1507C-37.4341 -37.9526 32.1215 -34.789 125.903 -4.85786L126.568 -4.65146L126.266 -4.01358C58.1501 138.954 41.6657 310.818 89.5216 379.097L90.6181 380.616L88.8879 380.05C78.1031 376.606 67.5606 372.445 57.331 367.595V367.595ZM124.85 -3.9399C31.9141 -33.4701 -36.8802 -36.7451 -54.825 -12.3484C-63.1513 -1.03381 -59.7922 16.0214 -45.1021 36.9593L-44.8976 37.2561L-45.0735 37.6269C-62.3525 73.8771 -71.7274 111.313 -72.9557 148.887C-74.3109 184.217 -67.7693 219.404 -53.8075 251.886C-27.6998 312.196 22.4218 357.075 87.4785 378.31C40.7569 308.788 57.3273 138.237 124.865 -3.93286L124.85 -3.9399Z" fill="white"/>
<path d="M-24.8362 302.67C-32.495 291.771 -34.1733 282.781 -29.7245 276.732C-20.4131 264.067 14.8302 265.606 62.2608 280.755L61.8886 281.923C14.9756 266.947 -19.735 265.243 -28.6731 277.503C-32.7936 283.09 -31.0894 291.565 -23.7779 302.009L-24.8362 302.67Z" fill="white"/>
<path d="M-73.1537 179.882C-86.1706 161.354 -89.0425 146.183 -81.5163 135.943C-65.6638 114.388 -5.54609 117.11 75.4467 142.976L75.0745 144.144C-5.40063 118.451 -65.0146 115.586 -80.5319 136.664C-87.6941 146.405 -84.8399 161.077 -72.1336 179.148L-73.1537 179.882Z" fill="white"/>
<path d="M88.6796 379.915C-24.9333 297.664 -61.6726 114.209 6.67521 -29.2481L7.78771 -28.7206C-60.2929 114.173 -23.6907 297.036 89.393 378.909L88.6796 379.915Z" fill="white"/>
<path d="M88.7616 379.972C-58.7962 305.973 -123.141 129.125 -54.7929 -14.3319L-53.6804 -13.8044C-121.733 129.03 -57.5863 305.184 89.311 378.852L88.7616 379.972Z" fill="white"/>
<path d="M114.698 402.863C104.172 397.613 95.1948 389.712 88.6508 379.938C22.5235 358.776 -28.4654 313.505 -54.907 252.327C-68.9402 219.66 -75.4989 184.27 -74.1041 148.742C-72.8867 111 -63.464 73.3863 -46.1147 36.9877L-45.6645 36.0383L-45.0519 36.892C2.84227 105.244 157.617 197.818 299.93 243.257L300.611 243.47L300.308 244.108C254.199 340.893 194.198 403.637 143.728 407.888C133.776 408.843 123.75 407.108 114.698 402.863ZM89.4219 378.886L89.5359 379.067C103.614 399.188 121.859 408.529 143.645 406.722C193.566 402.557 253.027 340.338 298.903 244.314C157.14 198.9 3.20704 106.888 -45.443 38.5599C-62.479 74.4892 -71.6547 111.62 -72.8751 148.871C-74.2303 184.201 -67.6887 219.388 -53.7269 251.869C-27.3875 312.726 23.3922 357.826 89.2744 378.852L89.4219 378.886Z" fill="white"/>
<path d="M88.8221 382.872C37.9735 358.762 -7.39051 327.568 -24.8362 302.67L-23.8301 301.966C0.290977 336.388 78.2594 383.078 150.003 405.921L149.623 407.104C128.845 400.373 108.534 392.278 88.8221 382.872V382.872Z" fill="white"/>
<path d="M121.176 317.012C34.2084 275.776 -43.3411 222.417 -73.1536 179.882L-72.1476 179.178C-30.8079 238.171 102.766 318.058 225.638 357.295L225.251 358.456C189.683 346.951 154.916 333.106 121.176 317.012V317.012Z" fill="white"/>
<path d="M50.3559 370.811C34.5644 363.269 21.408 351.149 12.5981 336.028C-17.6764 285.424 -10.0468 201.282 32.9878 110.943L34.1003 111.471C-8.75846 201.439 -16.3973 285.141 13.6642 335.389C29.6809 362.188 55.7755 377.16 89.0307 378.792L88.9755 380.019C75.6192 379.539 62.4917 376.409 50.3559 370.811Z" fill="white"/>
<path d="M78.3034 388.005L78.0513 387.885C68.6577 381.832 110.864 281.706 156.896 185.084L158.008 185.612C97.6314 312.335 72.4296 382.767 78.7341 386.828C79.3828 387.299 81.6075 387.282 88.5582 379.022L89.5074 379.817C83.9825 386.373 80.3949 388.996 78.3034 388.005Z" fill="white"/>
<path d="M114.698 402.863C104.819 398.179 96.0207 390.373 88.5297 379.771L87.4333 378.252L89.1853 378.81C120.214 388.595 152.724 392.834 185.225 391.334C224.439 366.72 265.452 314.287 299.109 243.648L299.341 243.159L299.816 243.384C351.556 259.904 395.857 268.281 428.123 268.282C444.876 248.029 459.079 225.797 470.413 202.082L470.863 201.133L471.476 201.986C486.484 223.402 489.824 240.957 481.17 252.734C473.037 263.795 454.786 269.295 428.757 269.436C367.923 342.942 276.741 388.684 185.539 392.627C171.186 401.593 157.005 406.825 143.628 407.986C133.7 408.892 123.711 407.124 114.698 402.863V402.863ZM90.6166 380.543C104.586 399.667 122.415 408.466 143.623 406.693C156.312 405.642 169.614 400.847 183.167 392.647C151.853 393.874 120.558 389.786 90.6096 380.558L90.6166 380.543ZM300.048 244.657C266.852 314.169 226.518 366.052 187.698 391.253C277.523 386.729 367.109 341.593 427.183 269.344C394.951 269.233 351.085 260.935 300.041 244.672L300.048 244.657ZM471.14 203.499C459.99 226.64 446.11 248.362 429.796 268.203C454.854 268.001 472.417 262.611 480.257 251.938C488.463 240.802 485.301 224.059 471.133 203.514L471.14 203.499Z" fill="white"/>
<path d="M149.623 407.104L150.003 405.921C196.916 420.897 231.634 422.623 240.631 410.391C244.737 404.798 243.033 396.322 235.721 385.878L236.734 385.159C244.393 396.059 246.071 405.049 241.623 411.098C232.349 423.798 197.061 422.238 149.623 407.104Z" fill="white"/>
<path d="M225.212 358.383L225.599 357.222C306.075 382.915 365.674 385.773 381.191 364.695C388.353 354.954 385.499 340.283 372.808 322.218L373.814 321.514C386.824 340.057 389.681 355.22 382.176 365.453C366.39 387.021 306.243 384.322 225.212 358.383Z" fill="white"/>
<path d="M123.039 400.331C110.983 394.595 99.4815 387.761 88.6795 379.915L89.3929 378.909C139.258 415.017 198.267 426.898 255.593 412.289C323.224 395.026 382.279 342.59 417.639 268.398L418.752 268.926C383.237 343.444 323.908 396.15 255.939 413.398C211.483 424.852 164.411 420.224 123.039 400.331Z" fill="white"/>
<path d="M95.097 383.049C92.9758 382.043 90.8546 381.037 88.7335 380.031L89.261 378.919C162.29 415.526 243.821 421.443 319 395.621C390.176 371.226 447.053 320.701 479.056 253.476L480.168 254.003C448.003 321.533 390.895 372.24 319.384 396.803C246.122 421.916 166.727 417.012 95.097 383.049Z" fill="white"/>
<path d="M471.14 203.499L470.527 202.645C422.633 134.294 267.873 41.7264 125.545 -3.71948L124.865 -3.9329L125.167 -4.57077C171.283 -101.371 231.284 -164.115 281.762 -168.344C303.592 -170.167 322.622 -160.489 336.832 -140.415C402.937 -119.246 453.948 -73.9825 480.389 -12.8048C494.416 19.8643 500.975 55.2529 499.586 90.7801C498.369 128.523 488.953 166.121 471.612 202.542L471.14 203.499ZM246.467 43.1143C346.622 90.603 435.97 151.955 470.943 201.079C487.986 165.135 497.146 127.998 498.36 90.7617C499.717 55.4273 493.178 20.2355 479.219 -12.2516C452.879 -73.1083 402.122 -118.179 336.232 -139.228L336.039 -139.319L335.918 -139.486C321.847 -159.621 303.595 -168.948 281.816 -167.155C231.94 -162.932 172.479 -100.713 126.642 -4.65305C167.587 8.62747 207.615 24.5843 246.467 43.1143V43.1143Z" fill="white"/>
<path d="M497.603 60.4409C456.233 1.43353 322.659 -78.4538 199.817 -117.676L200.197 -118.859C323.275 -79.5609 457.126 0.548293 498.616 59.722L497.603 60.4409Z" fill="white"/>
<path d="M392.423 128.654L391.31 128.127C434.169 38.1584 441.815 -45.5581 411.753 -95.8061C395.737 -122.606 369.657 -137.57 336.38 -139.194L336.442 -140.437C370.189 -138.807 396.553 -123.6 412.82 -96.4452C443.087 -45.8271 435.443 38.3447 392.423 128.654Z" fill="white"/>
<path d="M268.545 54.5271L267.432 53.9996C327.84 -72.6359 353.018 -143.17 346.727 -147.261C346.109 -147.681 343.876 -147.723 336.903 -139.455L335.954 -140.25C341.709 -147.061 345.364 -149.597 347.403 -148.303C356.783 -142.221 314.555 -42.0505 268.545 54.5271Z" fill="white"/>
<path d="M-45.4877 38.5388L-46.1003 37.6851C-61.1236 16.2622 -64.4639 -1.29277 -55.8094 -13.0696C-47.6613 -24.1234 -29.4252 -29.6309 -3.39617 -29.7717C57.4443 -103.292 148.627 -149.035 239.844 -152.97C254.197 -161.936 268.377 -167.168 281.755 -168.329C303.644 -170.16 322.719 -160.425 336.917 -140.175L338.014 -138.656L336.277 -139.207C305.231 -149.008 272.7 -153.257 240.178 -151.758C200.964 -127.144 160.025 -74.676 126.294 -4.07292L126.062 -3.58338L125.587 -3.80845C73.8468 -20.3285 29.5609 -28.6989 -2.70556 -28.6993C-19.4587 -8.44701 -33.6616 13.786 -44.9953 37.5004L-45.4877 38.5388ZM-4.34852 -28.6062C-29.3922 -28.3979 -46.9699 -23.0143 -54.8102 -12.3414C-63.0224 -1.19075 -59.8607 15.5528 -45.6928 36.0977C-34.5431 12.957 -20.6628 -8.76561 -4.34852 -28.6062V-28.6062ZM237.778 -151.679C147.889 -147.058 58.3379 -101.996 -1.80244 -29.761C30.489 -29.6216 74.3547 -21.3232 125.399 -5.06029C158.602 -74.5875 198.943 -126.485 237.778 -151.679ZM310.353 -162.201C301.455 -166.381 291.595 -168.088 281.809 -167.141C269.113 -166.074 255.818 -161.295 242.3 -153.169C273.603 -154.343 304.879 -150.221 334.808 -140.975C327.637 -150.783 319.485 -157.858 310.353 -162.201Z" fill="white"/>
<path d="M7.78774 -28.7205L6.67524 -29.248C42.1821 -103.788 101.526 -156.487 169.53 -173.809C227.221 -188.536 286.619 -176.634 336.768 -140.319L336.054 -139.312C286.189 -175.42 227.18 -187.301 169.855 -172.692C102.195 -155.37 43.1328 -102.919 7.78774 -28.7205Z" fill="white"/>
<path d="M-53.7228 -13.7154L-54.8353 -14.2429C-22.6554 -81.7658 34.4454 -132.494 105.971 -157.05C181.491 -183.019 263.384 -177.021 336.665 -140.331L336.137 -139.218C263.159 -175.82 181.591 -181.736 106.413 -155.914C35.1719 -131.459 -21.6414 -81.0307 -53.7228 -13.7154Z" fill="white"/>
<path d="M178.952 196.541C78.2187 148.778 -11.5725 86.9437 -46.0557 37.7062L-46.2601 37.4094L-46.1265 37.1275C22.2432 -106.337 193.884 -185.973 336.605 -140.396L336.783 -140.312L336.904 -140.145C384.987 -71.5406 368.543 100.888 300.259 244.212L300.027 244.701L299.537 244.469C258.328 231.172 218.045 215.161 178.952 196.541V196.541ZM-44.8826 37.263C3.19976 105.486 157.402 197.734 299.393 243.165C367.256 100.423 383.684 -70.9773 335.99 -139.216C194.025 -184.507 23.2548 -105.367 -44.8826 37.263Z" fill="white"/>
<path d="M245.94 55.1469C158.972 13.9108 81.4158 -39.4337 51.5884 -81.9757L52.6015 -82.6945C93.8756 -23.6778 227.523 56.208 350.387 95.4224L350.008 96.6054C314.442 85.0953 279.677 71.2456 245.94 55.1469V55.1469Z" fill="white"/>
<path d="M34.1159 111.514L33.0034 110.987C101.302 -32.3666 237.422 -145.143 336.428 -140.407L336.366 -139.165C237.822 -143.917 102.239 -31.4682 34.1159 111.514Z" fill="white"/>
<path d="M158.008 185.612L156.896 185.084C225.117 41.8942 305.442 -104.024 335.933 -140.206L336.882 -139.41C306.433 -103.318 226.194 42.4959 158.008 185.612Z" fill="white"/>
<path d="M298.851 244.307L299.153 243.67C367.276 100.687 383.76 -71.177 335.897 -139.441L334.801 -140.96L336.553 -140.402C402.82 -119.229 453.803 -73.9059 480.303 -12.7367C494.33 19.9324 500.888 55.321 499.5 90.8481C498.301 128.436 488.914 165.975 471.68 202.283C486.517 223.563 489.796 241.017 481.17 252.734C462.839 277.638 393.218 274.498 299.443 244.552L298.851 244.307ZM337.962 -138.698C384.732 -69.2807 368.127 101.345 300.589 243.515C393.525 273.045 462.32 276.32 480.264 251.923C488.591 240.609 485.232 223.553 470.541 202.616L470.352 202.326L470.507 201.999C487.711 165.714 497.146 128.306 498.374 90.7322C499.731 55.3978 493.192 20.206 479.233 -12.2811C453.155 -72.5411 402.99 -117.404 337.962 -138.698Z" fill="white"/>
<path d="M350.008 96.6053L350.387 95.4224C430.855 121.13 490.476 123.981 505.993 102.903C513.148 93.1767 510.294 78.505 497.603 60.4407L498.616 59.7219C511.626 78.2641 514.483 93.4278 506.964 103.653C491.154 125.156 431 122.471 350.008 96.6053Z" fill="white"/>
<path d="M418.78 268.866L417.667 268.339C485.748 125.445 449.138 -57.4393 336.054 -139.312L336.768 -140.319C450.335 -58.162 487.107 125.454 418.78 268.866Z" fill="white"/>
<path d="M480.212 253.988L479.1 253.46C547.159 110.611 483.013 -65.5432 336.115 -139.211L336.643 -140.323C484.184 -66.4049 548.581 110.486 480.212 253.988Z" fill="white"/>
<path d="M84.2314 390.906C71.0531 384.652 58.349 377.444 46.2205 369.34C35.4672 362.17 27.424 355.722 23.9886 352.966C14.4669 345.345 5.78103 336.956 5.71313 336.869C-2.18858 329.329 -9.66543 321.356 -16.6828 312.987C-21.6802 307.165 -28.1258 298.803 -32.602 292.265C-36.4018 286.83 -40.6462 280.493 -43.5489 275.464C-48.8127 266.373 -54.7262 255.356 -58.6085 247.374C-64.4217 235.533 -70.3225 218.435 -74.2765 206.658C-77.2766 197.549 -79.6253 188.238 -81.3051 178.796L-82.1331 173.952C-83.3226 166.92 -84.6639 158.943 -85.421 152.57C-86.3921 144.388 -86.9132 133.838 -87.1028 129.678C-87.45 121.483 -87.2605 110.852 -86.8671 103.662C-86.6285 98.9057 -86.0139 93.1648 -85.4526 87.6893C-85.1829 85.1281 -84.889 82.6691 -84.7233 80.4038C-83.8059 71.766 -82.2891 63.2023 -80.1837 54.7748C-76.3221 39.1985 -71.5869 23.8518 -66.0006 8.80763C-61.4481 -2.82457 -53.9872 -19.3645 -46.679 -30.9075C-45.4351 -32.8796 -44.0793 -35.1257 -42.7377 -37.3422C-39.5215 -42.6309 -35.8943 -48.6332 -32.5059 -53.0589C-31.1332 -54.8427 -29.6401 -56.8421 -28.0971 -58.9086C-24.6969 -63.4741 -21.1897 -68.1887 -18.0514 -71.9335C-12.6037 -78.633 -6.79761 -85.0327 -0.65847 -91.1047C0.875726 -92.5395 2.59037 -94.1249 4.28085 -95.8126C8.37729 -99.739 12.6253 -103.794 16.3333 -106.977C22.4582 -112.232 30.5997 -118.673 36.6273 -122.956C42.655 -127.239 50.1002 -132.212 55.5886 -135.587C63.0181 -140.221 70.6794 -144.472 78.5425 -148.324C91.7706 -154.64 105.336 -160.225 119.177 -165.052C126.259 -167.344 136.217 -170.145 144.517 -172.169C150.851 -173.727 158.932 -175.328 164.597 -176.203C172.437 -177.41 183.477 -178.661 191.899 -179.41C197.125 -179.858 204.154 -180.159 209.418 -180.188C215.095 -180.168 221.573 -180.112 226.482 -179.928C230.275 -179.765 235.306 -179.379 239.204 -179.056L240.551 -178.945C249.443 -178.235 260.43 -176.424 263.585 -175.873C268.471 -175.028 272.091 -174.347 274.651 -173.769C280.044 -172.538 288.701 -170.487 295.333 -168.687C299.778 -167.487 310.267 -164.204 318.691 -160.973C337.645 -153.82 355.824 -144.762 372.949 -133.938C384.952 -126.338 393.476 -119.753 393.469 -119.738C398.941 -115.454 405.253 -110.335 409.53 -106.672C413.044 -103.662 417.418 -99.5525 419.666 -97.3964C423.142 -94.0764 427.711 -89.4573 431.015 -85.9281C434.756 -81.9379 439.541 -76.4348 442.027 -73.4392C445.255 -69.6734 448.901 -64.9469 452.232 -60.4782C454.173 -57.9412 456.07 -55.3519 457.901 -52.7391L458.478 -51.8479C465.247 -41.3706 473.718 -28.4688 479.015 -17.7991C483.17 -9.43344 487.786 0.640977 490.786 7.87782C493.408 14.2266 496.416 22.5575 498.269 28.6507C500.918 37.3563 503.749 47.7471 505.43 55.1217C506.803 61.1148 508.411 69.8716 509.516 77.4271C510.62 84.9827 511.601 95.023 512.132 103.597C512.49 109.508 512.499 116.962 512.511 123.527L512.511 126.67C512.543 134.534 511.617 145.107 510.819 152.577C510.361 157.375 509.46 163.107 508.487 168.606C508.078 171.155 507.653 173.661 507.346 175.841C505.976 184.459 503.967 192.962 501.334 201.281C500.636 203.403 499.907 205.746 499.15 208.185C497.401 213.752 495.604 219.495 493.844 224.166C491.011 231.672 486.841 241.541 483.458 248.713C476.272 263.238 468.136 277.274 459.103 290.729C453.703 298.856 447.752 306.604 441.294 313.919C440.074 315.266 438.739 316.741 437.406 318.289C433.531 322.629 429.117 327.532 425.419 331.23C419.46 337.34 413.176 343.125 406.593 348.558L402.718 351.863C398.118 355.55 392.903 359.728 388.605 362.814C382.122 367.444 373.546 373.08 367.279 376.832C353.445 385.123 338.965 392.287 323.982 398.256C321.149 399.365 311.292 403.141 303.398 405.612C295.036 408.188 285.054 410.886 277.957 412.482C272.416 413.707 264.241 415.354 257.915 416.242C249.407 417.441 238.144 418.551 230.453 419.174C217.912 419.897 205.339 419.863 192.802 419.074C186.359 418.562 176.919 417.666 169.841 416.654C163.447 415.73 154.602 414.116 147.837 412.634C125.881 407.821 104.543 400.532 84.2314 390.906ZM-31.5812 291.568C-27.083 298.098 -20.7272 306.381 -15.7376 312.181C-8.74629 320.523 -1.30204 328.475 6.5615 336C6.66533 336.049 15.2848 344.424 24.7394 351.996C28.1748 354.751 36.1954 361.171 46.9042 368.32C77.6672 388.906 112.02 403.537 148.18 411.452C154.908 412.934 163.702 414.542 170.065 415.452C177.128 416.457 186.525 417.369 192.968 417.881C205.413 418.645 217.892 418.67 230.34 417.958C238.037 417.319 249.316 416.254 257.743 415.034C264.032 414.146 272.171 412.5 277.697 411.268C284.765 409.695 294.725 407.005 303.065 404.436C308.34 402.813 316.031 400.082 323.54 397.119C338.464 391.171 352.887 384.035 366.67 375.779C372.921 372.021 381.44 366.43 387.849 361.765C392.133 358.709 397.326 354.539 401.904 350.859L405.942 347.632C412.483 342.216 418.731 336.457 424.66 330.379C428.357 326.681 432.735 321.816 436.596 317.505C437.974 315.978 439.294 314.497 440.492 313.12C446.905 305.855 452.816 298.162 458.186 290.095C467.186 276.691 475.291 262.707 482.449 248.235C485.847 241.07 489.996 231.245 492.815 223.769C494.554 219.143 496.351 213.399 498.086 207.863C498.85 205.408 499.558 203.11 500.284 200.928C502.885 192.681 504.872 184.252 506.227 175.71C506.562 173.471 506.966 171.01 507.376 168.46C508.281 162.948 509.205 157.245 509.708 152.505C510.478 145.057 511.412 134.543 511.389 126.738L511.381 123.573C511.377 117.029 511.354 109.605 511.004 103.716C510.48 95.164 509.459 84.9409 508.389 77.6563C507.32 70.3718 505.716 61.4166 504.373 55.4743C502.684 48.1146 499.876 37.7526 497.235 29.0689C495.391 23.0343 492.405 14.7323 489.799 8.4272C486.792 1.2052 482.198 -8.8403 478.045 -17.1325C472.778 -27.7882 464.357 -40.7204 457.531 -51.1158L456.977 -51.9781C455.329 -54.2495 453.394 -56.9115 451.339 -59.6664C422.94 -96.7526 383.413 -124.088 336.418 -139.158L336.329 -139.201L336.136 -139.292L336.508 -140.46C370.437 -129.883 401.573 -111.854 427.637 -87.6933C424.785 -90.6445 421.568 -93.8598 419.013 -96.3252C416.727 -98.5172 412.376 -102.597 408.869 -105.586C404.6 -109.228 398.276 -114.243 392.868 -118.624C392.779 -118.667 384.441 -125.145 372.415 -132.774C355.323 -143.567 337.176 -152.591 318.255 -159.708C309.86 -162.925 299.423 -166.202 295.022 -167.38C288.405 -169.173 279.771 -171.232 274.392 -172.456C271.832 -173.034 268.249 -173.716 263.377 -174.554C260.238 -175.098 249.288 -176.91 240.461 -177.607L239.1 -177.725C235.143 -178.039 230.207 -178.435 226.429 -178.591C221.542 -178.782 215.094 -178.824 209.417 -178.844C204.21 -178.86 197.226 -178.575 192.029 -178.113C183.629 -177.372 172.685 -176.093 164.793 -174.929C159.084 -174.002 151.075 -172.476 144.74 -170.955C136.5 -168.903 126.563 -166.146 119.562 -163.833C105.738 -159.033 92.1867 -153.478 78.9699 -147.195C71.1453 -143.355 63.5182 -139.124 56.1176 -134.519C50.6932 -131.24 43.0739 -126.168 37.2508 -121.934C31.4278 -117.699 23.1988 -111.226 17.1091 -106.046C13.437 -102.9 9.22494 -98.8829 5.11443 -94.9267C3.37946 -93.2601 1.73898 -91.6396 0.168084 -90.204C-5.94028 -84.1744 -11.7108 -77.8118 -17.117 -71.1453C-20.2412 -67.4301 -23.7414 -62.7303 -27.1346 -58.1797C-28.6776 -56.1132 -30.1496 -54.1583 -31.5356 -52.3081C-34.881 -47.9347 -38.509 -41.9691 -41.6963 -36.7031C-43.0809 -34.4343 -44.4155 -32.2327 -45.6595 -30.2605C-52.9176 -18.7847 -60.3364 -2.33379 -64.8678 9.25391C-70.4288 24.2306 -75.1433 39.5082 -78.9891 55.0142C-81.0669 63.3854 -82.5678 71.8893 -83.481 80.4659C-83.6842 82.6953 -83.9109 85.2042 -84.2251 87.7444C-84.8005 93.2495 -85.387 98.9311 -85.6185 103.673C-85.9401 110.788 -86.2107 121.398 -85.8424 129.549C-85.6677 133.702 -85.1473 144.215 -84.177 152.36C-83.4425 158.705 -82.0942 166.666 -80.8977 173.684L-80.0767 178.543C-78.4079 187.916 -76.0753 197.158 -73.0965 206.2C-69.1651 217.949 -63.2517 234.943 -57.49 246.778C-53.6234 254.716 -47.7247 265.726 -42.4765 274.774C-39.5816 279.78 -35.3316 286.029 -31.5679 291.502L-31.5812 291.568Z" fill="white"/>
<path d="M88.6508 379.938L88.5298 379.771C40.4765 311.181 56.8385 138.732 125.168 -4.57073L125.414 -5.08995L125.903 -4.85786C268.454 40.6568 423.497 133.431 471.541 201.963L471.746 202.26L471.591 202.586C403.278 345.969 231.519 425.549 88.8577 380L88.6508 379.938ZM126.107 -3.52559C58.2587 139.223 41.8377 310.609 89.5094 378.855C231.569 424.101 402.28 344.933 470.411 202.317C422.263 134.118 268.083 41.8983 126.107 -3.52559Z" fill="white"/>
<path d="M235.781 385.906C211.66 351.484 133.691 304.795 61.9551 281.937L62.3272 280.769C134.264 303.74 212.537 350.592 236.794 385.187L235.781 385.906Z" fill="white"/>
<path d="M372.846 322.291C331.499 263.312 197.917 183.403 75.0605 144.174L75.4327 143.006C198.511 182.304 332.376 262.42 373.852 321.587L372.846 322.291Z" fill="white"/>
<path d="M89.0053 380.033L89.0605 378.806C187.625 383.514 323.209 271.065 391.31 128.127L392.423 128.654C324.124 272.008 188.011 384.769 89.0053 380.033Z" fill="white"/>
<path d="M89.5076 379.817L88.5584 379.022C119.014 342.914 199.246 197.116 267.432 53.9997L268.545 54.5272C200.323 197.717 120.013 343.643 89.5076 379.817Z" fill="white"/>
<path d="M57.3312 367.595C6.42329 343.457 -32.8027 303.417 -54.9218 252.32C-68.9549 219.653 -75.5137 184.263 -74.1189 148.735C-72.9202 111.147 -63.5328 73.608 -46.2842 37.3071C-61.1139 16.0123 -64.4003 -1.4263 -55.7888 -13.1508C-37.4339 -37.9526 32.1218 -34.789 125.903 -4.85792L126.568 -4.65152L126.266 -4.01364C58.1503 138.954 41.6659 310.818 89.5219 379.097L90.6183 380.616L88.8882 380.05C78.1033 376.606 67.5608 372.445 57.3312 367.595V367.595ZM124.85 -3.93996C31.9143 -33.4702 -36.88 -36.7452 -54.8248 -12.3485C-63.1511 -1.03387 -59.7919 16.0213 -45.1018 36.9592L-44.8974 37.256L-45.0732 37.6269C-62.3522 73.8771 -71.7271 111.313 -72.9555 148.887C-74.3106 184.217 -67.7691 219.404 -53.8073 251.885C-27.6995 312.196 22.422 357.075 87.4787 378.31C40.7571 308.788 57.3276 138.237 124.865 -3.93292L124.85 -3.93996Z" fill="white"/>
<path d="M-24.836 302.67C-32.4948 291.771 -34.173 282.781 -29.7243 276.732C-20.4128 264.067 14.8304 265.607 62.2611 280.755L61.8889 281.924C14.9759 266.947 -19.7347 265.243 -28.6728 277.503C-32.7934 283.09 -31.0892 291.565 -23.7777 302.009L-24.836 302.67Z" fill="white"/>
<path d="M-73.1534 179.881C-86.1704 161.354 -89.0423 146.183 -81.516 135.943C-65.6635 114.388 -5.54584 117.11 75.4469 142.976L75.0748 144.144C-5.40039 118.451 -65.0143 115.586 -80.5317 136.664C-87.6938 146.405 -84.8397 161.077 -72.1333 179.148L-73.1534 179.881Z" fill="white"/>
<path d="M88.6797 379.915C-24.9333 297.664 -61.6726 114.209 6.67527 -29.2481L7.78777 -28.7206C-60.2928 114.173 -23.6906 297.036 89.393 378.909L88.6797 379.915Z" fill="white"/>
<path d="M88.7617 379.972C-58.796 305.973 -123.141 129.125 -54.7927 -14.3318L-53.6802 -13.8043C-121.733 129.03 -57.5862 305.184 89.3112 378.852L88.7617 379.972Z" fill="white"/>
<path d="M114.698 402.863C104.172 397.614 95.1949 389.712 88.6509 379.938C22.5236 358.776 -28.4653 313.505 -54.9069 252.327C-68.9401 219.66 -75.4989 184.27 -74.1041 148.742C-72.8866 111 -63.464 73.3863 -46.1146 36.9878L-45.6644 36.0383L-45.0518 36.8921C2.84233 105.244 157.617 197.818 299.931 243.257L300.611 243.47L300.308 244.108C254.199 340.893 194.199 403.638 143.729 407.888C133.776 408.844 123.75 407.108 114.698 402.863ZM89.422 378.886L89.5359 379.067C103.614 399.188 121.859 408.529 143.645 406.722C193.566 402.557 253.027 340.338 298.903 244.314C157.14 198.9 3.2071 106.888 -45.4429 38.5599C-62.479 74.4892 -71.6547 111.62 -72.875 148.871C-74.2302 184.201 -67.6887 219.388 -53.7269 251.869C-27.3874 312.726 23.3923 357.826 89.2744 378.852L89.422 378.886Z" fill="white"/>
<path d="M88.8221 382.872C37.9735 358.761 -7.39052 327.567 -24.8362 302.67L-23.8301 301.966C0.290975 336.388 78.2594 383.078 150.003 405.921L149.623 407.104C128.845 400.373 108.534 392.278 88.8221 382.872V382.872Z" fill="white"/>
<path d="M121.176 317.012C34.2085 275.776 -43.341 222.417 -73.1535 179.882L-72.1475 179.178C-30.8078 238.171 102.766 318.058 225.638 357.295L225.251 358.456C189.684 346.951 154.916 333.106 121.176 317.012V317.012Z" fill="white"/>
<path d="M50.356 370.811C34.5644 363.269 21.4081 351.149 12.5982 336.028C-17.6763 285.425 -10.0467 201.282 32.9879 110.943L34.1004 111.471C-8.7584 201.439 -16.3972 285.141 13.6643 335.389C29.681 362.188 55.7756 377.16 89.0307 378.792L88.9756 380.019C75.6193 379.539 62.4918 376.409 50.356 370.811Z" fill="white"/>
<path d="M78.3036 388.005L78.0514 387.885C68.6579 381.832 110.864 281.706 156.896 185.084L158.009 185.612C97.6316 312.335 72.4298 382.767 78.7343 386.828C79.383 387.299 81.6077 387.282 88.5584 379.022L89.5076 379.817C83.9827 386.373 80.3951 388.996 78.3036 388.005Z" fill="white"/>
<path d="M114.698 402.863C104.819 398.179 96.0208 390.373 88.5298 379.771L87.4333 378.252L89.1853 378.81C120.214 388.595 152.724 392.834 185.225 391.334C224.439 366.72 265.452 314.287 299.109 243.648L299.341 243.159L299.816 243.384C351.556 259.904 395.857 268.281 428.123 268.282C444.876 248.029 459.079 225.797 470.413 202.082L470.863 201.133L471.476 201.986C486.484 223.402 489.824 240.957 481.17 252.734C473.037 263.795 454.786 269.295 428.757 269.436C367.923 342.942 276.741 388.684 185.539 392.627C171.186 401.593 157.005 406.825 143.628 407.986C133.7 408.892 123.711 407.124 114.698 402.863V402.863ZM90.6167 380.543C104.586 399.667 122.416 408.466 143.623 406.693C156.312 405.642 169.614 400.847 183.167 392.647C151.853 393.874 120.558 389.786 90.6097 380.558L90.6167 380.543ZM300.048 244.657C266.852 314.169 226.518 366.052 187.698 391.253C277.523 386.729 367.109 341.593 427.183 269.344C394.951 269.233 351.086 260.935 300.041 244.672L300.048 244.657ZM471.14 203.499C459.99 226.64 446.11 248.362 429.796 268.203C454.854 268.001 472.417 262.611 480.258 251.938C488.463 240.802 485.301 224.059 471.133 203.514L471.14 203.499Z" fill="white"/>
<path d="M149.623 407.104L150.003 405.921C196.916 420.897 231.634 422.623 240.632 410.391C244.737 404.798 243.033 396.322 235.722 385.878L236.735 385.159C244.393 396.059 246.072 405.049 241.623 411.098C232.349 423.798 197.061 422.238 149.623 407.104Z" fill="white"/>
<path d="M225.213 358.383L225.6 357.222C306.075 382.915 365.674 385.773 381.191 364.695C388.353 354.954 385.499 340.283 372.808 322.218L373.814 321.514C386.824 340.057 389.681 355.22 382.176 365.453C366.39 387.021 306.244 384.322 225.213 358.383Z" fill="white"/>
<path d="M123.039 400.331C110.983 394.595 99.4817 387.761 88.6797 379.915L89.3931 378.909C139.258 415.017 198.267 426.898 255.593 412.289C323.224 395.026 382.28 342.59 417.639 268.398L418.752 268.926C383.237 343.443 323.909 396.15 255.939 413.398C211.483 424.852 164.411 420.224 123.039 400.331Z" fill="white"/>
<path d="M95.0972 383.049C92.976 382.043 90.8548 381.037 88.7337 380.031L89.2612 378.919C162.29 415.526 243.822 421.443 319 395.621C390.176 371.227 447.054 320.701 479.056 253.476L480.169 254.003C448.004 321.533 390.895 372.24 319.384 396.803C246.122 421.916 166.727 417.012 95.0972 383.049Z" fill="white"/>
<path d="M471.14 203.499L470.528 202.645C422.633 134.294 267.874 41.7265 125.545 -3.71932L124.865 -3.93275L125.168 -4.57062C171.284 -101.371 231.284 -164.115 281.762 -168.344C303.592 -170.167 322.623 -160.489 336.832 -140.415C402.937 -119.246 453.948 -73.9824 480.39 -12.8047C494.417 19.8644 500.975 55.253 499.587 90.7802C498.369 128.523 488.954 166.121 471.612 202.542L471.14 203.499ZM246.468 43.1145C346.622 90.6031 435.97 151.955 470.943 201.08C487.986 165.135 497.147 127.998 498.36 90.7618C499.718 55.4274 493.178 20.2356 479.219 -12.2514C452.88 -73.1082 402.122 -118.179 336.233 -139.228L336.04 -139.319L335.919 -139.486C321.848 -159.621 303.596 -168.948 281.816 -167.155C231.941 -162.932 172.48 -100.713 126.642 -4.6529C167.587 8.62762 207.615 24.5845 246.468 43.1145V43.1145Z" fill="white"/>
<path d="M497.603 60.4409C456.233 1.43352 322.659 -78.4538 199.818 -117.676L200.197 -118.859C323.275 -79.5609 457.126 0.548285 498.616 59.722L497.603 60.4409Z" fill="white"/>
<path d="M392.423 128.654L391.31 128.127C434.169 38.1583 441.815 -45.5581 411.754 -95.8061C395.737 -122.606 369.657 -137.57 336.38 -139.194L336.442 -140.437C370.189 -138.808 396.553 -123.6 412.82 -96.4453C443.087 -45.8271 435.443 38.3446 392.423 128.654Z" fill="white"/>
<path d="M268.545 54.527L267.432 53.9995C327.84 -72.636 353.018 -143.17 346.727 -147.261C346.109 -147.682 343.876 -147.723 336.903 -139.455L335.954 -140.25C341.709 -147.061 345.364 -149.597 347.403 -148.303C356.783 -142.221 314.555 -42.0506 268.545 54.527Z" fill="white"/>
<path d="M-45.4875 38.5388L-46.1001 37.685C-61.1234 16.2621 -64.4636 -1.29283 -55.8092 -13.0696C-47.661 -24.1235 -29.425 -29.631 -3.39592 -29.7718C57.4446 -103.292 148.627 -149.035 239.844 -152.97C254.197 -161.936 268.378 -167.168 281.755 -168.329C303.644 -170.161 322.719 -160.425 336.918 -140.175L338.014 -138.656L336.277 -139.207C305.231 -149.008 272.7 -153.257 240.178 -151.758C200.964 -127.144 160.025 -74.6761 126.294 -4.07298L126.062 -3.58344L125.587 -3.80851C73.847 -20.3286 29.5612 -28.699 -2.70531 -28.6993C-19.4585 -8.44707 -33.6614 13.7859 -44.9951 37.5004L-45.4875 38.5388ZM-4.34827 -28.6062C-29.3919 -28.3979 -46.9697 -23.0144 -54.81 -12.3415C-63.0222 -1.19081 -59.8605 15.5528 -45.6926 36.0977C-34.5428 12.9569 -20.6626 -8.76567 -4.34827 -28.6062V-28.6062ZM237.778 -151.679C147.89 -147.059 58.3381 -101.996 -1.80219 -29.7611C30.4892 -29.6217 74.355 -21.3233 125.4 -5.06035C158.603 -74.5875 198.944 -126.485 237.778 -151.679ZM310.353 -162.201C301.455 -166.381 291.595 -168.088 281.809 -167.141C269.113 -166.075 255.818 -161.295 242.3 -153.169C273.603 -154.343 304.879 -150.221 334.808 -140.975C327.637 -150.783 319.485 -157.858 310.353 -162.201Z" fill="white"/>
<path d="M7.78786 -28.7205L6.67536 -29.248C42.1822 -103.788 101.526 -156.487 169.531 -173.809C227.221 -188.536 286.619 -176.634 336.768 -140.319L336.055 -139.312C286.189 -175.42 227.18 -187.301 169.855 -172.692C102.195 -155.37 43.1329 -102.919 7.78786 -28.7205Z" fill="white"/>
<path d="M-53.7225 -13.7154L-54.835 -14.2429C-22.6552 -81.7659 34.4456 -132.494 105.971 -157.05C181.492 -183.019 263.384 -177.022 336.665 -140.331L336.137 -139.219C263.16 -175.82 181.592 -181.736 106.414 -155.914C35.1722 -131.459 -21.6412 -81.0307 -53.7225 -13.7154Z" fill="white"/>
<path d="M178.952 196.542C78.2189 148.779 -11.5723 86.9437 -46.0555 37.7062L-46.26 37.4094L-46.1263 37.1276C22.2434 -106.337 193.884 -185.973 336.605 -140.396L336.783 -140.312L336.904 -140.145C384.987 -71.5406 368.544 100.888 300.259 244.212L300.027 244.701L299.537 244.469C258.329 231.172 218.045 215.161 178.952 196.542V196.542ZM-44.8825 37.2631C3.19994 105.486 157.402 197.734 299.393 243.165C367.256 100.423 383.684 -70.9772 335.991 -139.215C194.025 -184.507 23.255 -105.367 -44.8825 37.2631Z" fill="white"/>
<path d="M245.94 55.1469C158.972 13.9108 81.416 -39.4337 51.5886 -81.9757L52.6017 -82.6946C93.8758 -23.6779 227.523 56.2079 350.387 95.4224L350.008 96.6053C314.442 85.0952 279.677 71.2455 245.94 55.1469V55.1469Z" fill="white"/>
<path d="M34.1161 111.514L33.0036 110.987C101.302 -32.3665 237.423 -145.143 336.428 -140.407L336.366 -139.165C237.823 -143.917 102.239 -31.4681 34.1161 111.514Z" fill="white"/>
<path d="M158.008 185.612L156.896 185.084C225.117 41.8941 305.442 -104.024 335.933 -140.206L336.882 -139.41C306.433 -103.318 226.194 42.4957 158.008 185.612Z" fill="white"/>
<path d="M298.851 244.307L299.153 243.67C367.276 100.687 383.761 -71.1771 335.898 -139.441L334.801 -140.96L336.553 -140.402C402.82 -119.229 453.803 -73.9059 480.303 -12.7368C494.33 19.9323 500.888 55.3209 499.5 90.8481C498.301 128.436 488.914 165.975 471.68 202.283C486.517 223.563 489.796 241.017 481.17 252.734C462.839 277.638 393.218 274.498 299.443 244.552L298.851 244.307ZM337.962 -138.699C384.733 -69.2807 368.127 101.345 300.589 243.515C393.525 273.045 462.32 276.32 480.265 251.923C488.591 240.609 485.232 223.553 470.542 202.615L470.352 202.326L470.507 201.999C487.712 165.714 497.146 128.306 498.374 90.7321C499.732 55.3978 493.192 20.2059 479.233 -12.2811C453.156 -72.5412 402.99 -117.404 337.962 -138.699Z" fill="white"/>
<path d="M350.008 96.6054L350.387 95.4225C430.855 121.131 490.476 123.981 505.993 102.903C513.149 93.1767 510.294 78.5051 497.603 60.4408L498.616 59.7219C511.626 78.2642 514.483 93.4279 506.964 103.653C491.154 125.156 431.001 122.471 350.008 96.6054Z" fill="white"/>
<path d="M418.78 268.866L417.668 268.339C485.748 125.445 449.138 -57.4393 336.055 -139.312L336.768 -140.319C450.335 -58.162 487.107 125.454 418.78 268.866Z" fill="white"/>
<path d="M480.212 253.988L479.1 253.46C547.159 110.611 483.013 -65.5433 336.115 -139.211L336.643 -140.323C484.184 -66.405 548.581 110.486 480.212 253.988Z" fill="white"/>
<path d="M83.2592 390.427L82.117 389.886L78.1027 387.892L76.293 387.034C74.6465 386.253 72.3888 385.037 70.4722 383.983C59.5627 378.106 49.0255 371.562 38.9206 364.389C20.4778 351.288 3.59059 336.124 -11.4133 319.192C-18.9418 310.597 -26.0261 301.622 -32.6382 292.303C-38.7417 283.753 -44.3202 274.84 -49.3428 265.613C-50.1769 264 -51.0867 262.279 -52.0417 260.5C-55.2524 254.435 -58.8984 247.564 -61.2058 241.855C-61.9796 239.962 -62.8307 237.887 -63.7496 235.725C-65.7669 230.898 -67.8614 225.889 -69.3675 221.632C-72.0052 214.168 -75.1199 204.26 -77.1072 196.995C-79.9211 186.721 -82.6472 172.201 -85.479 152.616C-86.4995 144.061 -87.0906 135.461 -87.2502 126.847C-87.5765 118.341 -87.4257 109.823 -86.7984 101.333C-85.3995 85.7319 -83.2185 70.2107 -80.2636 54.8282C-77.5675 42.2067 -72.2135 26.0487 -67.8737 13.3708C-65.8238 7.4383 -62.5443 0.25363 -59.6362 -6.07139L-58.1872 -9.12731C-54.5175 -17.2544 -50.3256 -25.1354 -45.6376 -32.7208C-44.407 -34.6266 -43.0708 -36.7548 -41.6776 -38.965C-38.6147 -43.8539 -35.4376 -48.9068 -32.5772 -52.9469C-27.912 -59.529 -21.4985 -67.8441 -16.611 -73.6304C-11.8884 -79.2223 -5.50593 -86.2075 -0.729787 -90.9928C3.33392 -95.0801 8.73243 -99.9518 13.4896 -104.237L18.3468 -108.657C25.048 -114.582 32.131 -120.061 39.55 -125.058C49.9125 -132.046 65.1656 -141.148 78.404 -148.262C86.5787 -152.584 95.0383 -156.343 103.724 -159.514L109.686 -161.666C114.474 -163.411 119.925 -165.405 124.356 -166.702C132.603 -169.114 144.247 -172.061 154.027 -174.219C161.008 -175.76 170.417 -177.059 174.137 -177.548C179.6 -178.264 186.756 -178.832 192.546 -179.358L194.247 -179.496C205.717 -180.359 217.233 -180.423 228.712 -179.688C238.515 -178.983 245.88 -178.307 251.189 -177.625C258.133 -176.713 267.361 -175.063 273.68 -173.829C281.621 -172.262 291.635 -169.549 294.471 -168.786C300.897 -167.011 306.066 -165.269 311.51 -163.414C313.499 -162.744 321.106 -159.973 325.128 -158.302C330.624 -156.023 335.365 -154.066 343.25 -150.272C355.691 -144.213 367.701 -137.305 379.193 -129.596C384.793 -125.887 391.131 -121.246 394.027 -119.037C398.169 -115.856 404.167 -110.959 410.132 -105.95C413.496 -103.083 418.094 -98.832 421.565 -95.387C426.71 -90.2586 432.648 -84.0452 436.715 -79.5185C443.857 -71.5899 452.297 -60.1929 457.925 -52.6365C459.182 -50.8416 460.409 -49.024 461.636 -47.2431C465.432 -41.6092 469.772 -34.9365 472.722 -29.395C473.586 -27.7681 474.556 -25.9818 475.571 -24.1377C477.877 -19.8826 480.497 -15.0612 482.371 -11.1202C486.222 -3.34905 489.675 4.61333 492.716 12.736C493.389 14.7267 494.154 16.9065 494.937 19.2401C496.7 24.2189 498.533 29.3578 499.813 33.7079C502.208 41.8386 504.696 51.6124 506.206 58.5426C507.716 65.4728 509.242 74.5177 510.036 80.9268C510.484 84.4277 511.972 96.6532 512.306 106.296C513.082 122.503 512.531 138.747 510.661 154.865C508.727 171.663 503.523 192.907 501.384 201.251C499.394 209.01 495.787 219.11 493.167 226.244C491.246 231.33 488.483 237.578 486.028 243.1C485.1 245.059 484.31 246.992 483.554 248.741C479.417 257.871 474.657 266.705 469.309 275.182C464.781 282.357 460.044 289.741 456.039 295.237C451.321 301.739 444.81 309.99 439.849 315.741C435.103 321.268 428.66 328.151 423.824 332.908C419.592 337.043 414.063 341.998 409.087 346.325L404.537 350.364C398.696 355.362 392.589 360.042 386.244 364.384C381.083 367.988 374.342 372.204 368.405 375.912L363.985 378.759C355.856 383.623 347.446 388.002 338.8 391.873C325.525 397.952 311.846 403.104 297.859 407.292C289.478 409.641 277.73 412.501 267.815 414.559C262.317 415.695 255.045 416.663 249.208 417.438L247.832 417.621C235.102 419.108 222.293 419.812 209.478 419.731C205.01 419.612 193.658 419.262 185.065 418.494C178.635 417.916 169.548 416.733 162.326 415.489C151.707 413.677 141.19 411.316 130.815 408.416C123.059 406.228 118.791 404.768 113.836 403.072C110.944 402.083 103.943 399.49 100.225 397.945C94.9362 395.764 91.5213 394.345 87.9543 392.672L83.2521 390.442L83.2592 390.427ZM340.913 -150.018C334.149 -153.225 329.763 -155.05 324.734 -157.126C320.726 -158.79 313.171 -161.554 311.197 -162.218C305.746 -164.058 300.614 -165.801 294.218 -167.562C286.581 -169.656 278.846 -171.543 273.522 -172.577C267.197 -173.76 258.027 -175.455 251.098 -176.36C245.811 -177.05 238.483 -177.727 228.694 -178.425C217.295 -179.185 205.856 -179.145 194.462 -178.303L192.762 -178.165C187.067 -177.649 179.817 -177.035 174.397 -176.371C170.699 -175.889 161.341 -174.585 154.432 -173.118C144.674 -170.968 133.067 -168.023 124.841 -165.618C120.454 -164.337 115.025 -162.35 110.237 -160.605L104.275 -158.453C95.6303 -155.318 87.2136 -151.586 79.0853 -147.285C65.8609 -140.201 50.6586 -131.129 40.318 -124.149C32.9542 -119.154 25.9275 -113.678 19.2835 -107.759C17.7774 -106.383 16.112 -104.902 14.4114 -103.346C9.66909 -99.0534 4.27761 -94.1966 0.206865 -90.0944C-4.54741 -85.317 -10.8128 -78.3489 -15.6025 -72.807C-20.3922 -67.2651 -26.8456 -58.7509 -31.4968 -52.1984C-34.3431 -48.188 -37.5131 -43.15 -40.548 -38.3204C-41.9263 -36.1031 -43.2625 -33.9749 -44.5002 -32.0543C-49.1628 -24.5238 -53.329 -16.6971 -56.9724 -8.624L-58.4214 -5.56806C-61.3006 0.73433 -64.559 7.87449 -66.5878 13.7625C-70.9502 26.4115 -76.298 42.518 -78.9425 55.1457C-81.8942 70.4832 -84.0664 85.9604 -85.4507 101.518C-86.0758 109.958 -86.2276 118.427 -85.9056 126.885C-85.7527 135.447 -85.1675 143.997 -84.1523 152.5C-82.2319 167.396 -79.4449 182.168 -75.8054 196.74C-73.7962 203.997 -70.7339 213.862 -68.1039 221.305C-66.5987 225.525 -64.5268 230.505 -62.5095 235.332C-61.6054 237.486 -60.7325 239.554 -59.9586 241.447C-57.6668 247.112 -54.0286 253.961 -50.8405 259.997C-49.8707 261.783 -48.9757 263.498 -48.1417 265.111C-43.1437 274.283 -37.5958 283.145 -31.5283 291.648C-24.9409 300.934 -17.8844 309.877 -10.3861 318.444C12.7986 344.584 40.4122 366.429 71.1856 382.977C73.0428 384.003 75.2997 385.182 76.9322 385.992L78.727 386.843L82.7265 388.83C83.9428 389.407 85.4261 390.11 86.8056 390.765L88.5708 391.601C92.1011 393.275 95.523 394.68 100.641 396.798C104.441 398.363 111.398 400.935 114.289 401.925C119.215 403.606 123.483 405.066 131.187 407.248C141.521 410.145 152 412.5 162.58 414.302C169.721 415.525 178.822 416.716 185.216 417.294C193.787 418.069 205.088 418.413 209.562 418.518C222.307 418.596 235.044 417.901 247.704 416.434L249.088 416.237C254.902 415.469 262.159 414.494 267.614 413.374C277.507 411.324 289.263 408.485 297.571 406.138C311.499 401.96 325.123 396.823 338.343 390.766C346.942 386.922 355.304 382.569 363.384 377.728L367.834 374.933C373.749 371.233 380.461 367.039 385.643 363.39C391.949 359.087 398.022 354.452 403.837 349.505L408.393 345.451C413.303 341.111 418.87 336.192 423.072 332.08C427.894 327.352 434.308 320.491 439.04 314.994C443.98 309.251 450.462 301.059 455.166 294.587C459.135 289.091 463.864 281.722 468.378 274.578C473.698 266.16 478.43 257.384 482.539 248.314C483.362 246.578 484.151 244.645 485.028 242.644C487.468 237.151 490.239 230.925 492.146 225.869C494.811 218.793 498.442 208.759 500.3 201.009C502.439 192.666 507.563 171.475 509.513 154.757C511.391 138.688 511.955 122.493 511.198 106.334C510.858 96.7426 509.378 84.5757 508.93 81.0748C508.123 74.7321 506.618 65.9878 505.103 58.8007C503.587 51.6136 501.171 42.11 498.71 33.966C497.402 29.712 495.612 24.5207 493.857 19.5637C493.077 17.377 492.297 15.1902 491.621 13.0526C488.602 4.96712 485.167 -2.95674 481.33 -10.6871L481.106 -11.1745C508.151 52.5242 505.915 127.667 473.514 198.338C472.952 199.525 472.382 200.727 471.812 201.928L471.566 202.447C403.278 345.969 231.519 425.549 88.8575 380L89.2297 378.832C231.388 424.215 402.389 344.894 470.492 202.029L470.739 201.51C511.134 116.315 507.288 24.1515 460.696 -46.5625L457.014 -51.9418C451.409 -59.4693 442.917 -70.8726 435.887 -78.7301C431.843 -83.2279 425.919 -89.4342 420.783 -94.5407C417.347 -97.9865 412.766 -102.194 409.409 -105.039C403.495 -110.078 397.512 -114.969 393.363 -118.098C390.49 -120.315 384.189 -124.92 378.619 -128.614C367.153 -136.26 355.18 -143.115 342.782 -149.132L340.913 -150.018Z" fill="white"/>
</svg>
